<?xml version="1.0" encoding="UTF-8"?>
<svg version="1.1" xmlns="http://www.w3.org/2000/svg" width="673" height="673">
<path d="M0 0 C144.32638951 -0.19655389 144.32638951 -0.19655389 189.80108643 0.20852661 C193.10069888 0.23767749 196.4001732 0.25827541 199.69989014 0.27072144 C220.67908386 0.35748037 241.25972567 1.0775699 261 9 C262.82144531 9.72123047 262.82144531 9.72123047 264.6796875 10.45703125 C280.62367395 16.98932245 294.91539904 25.81582717 308 37 C308.55671387 37.47163574 309.11342773 37.94327148 309.68701172 38.42919922 C318.27442607 45.78165923 325.42867981 53.8103994 332 63 C332.3913916 63.54317871 332.7827832 64.08635742 333.18603516 64.64599609 C351.68201976 90.7232066 362.19001854 123.90627379 360 156 C359.91878906 157.28648437 359.83757812 158.57296875 359.75390625 159.8984375 C357.37319715 189.72390643 347.51557999 220.86623424 328.31567383 244.19360352 C325.656283 247.52337217 325.656283 247.52337217 324.95703125 251.62109375 C326.21539137 254.49128594 327.76991406 256.3614175 329.875 258.6875 C355.28057678 288.8187564 365.78490636 328.76931001 362.79785156 367.62988281 C359.00042912 404.81596298 341.68839569 437.41525396 316 464 C315.39953857 464.62672607 314.79907715 465.25345215 314.18041992 465.89916992 C288.60272046 492.11105317 249.57675107 509.28911248 213 512 C210.92650191 512.01784449 208.85286345 512.02222634 206.77929688 512.01635742 C205.1564679 512.01281502 205.1564679 512.01281502 203.50085449 512.00920105 C202.67557251 512.0061647 201.85029053 512.00312836 201 512 C200.9768795 498.32697438 200.95908641 484.65395336 200.94818783 470.98091221 C200.94295836 464.63269424 200.93585956 458.2844896 200.92456055 451.9362793 C200.91373394 445.81551418 200.90772365 439.69476191 200.90512276 433.57398796 C200.9032681 431.23309057 200.89964671 428.89219391 200.89426994 426.55130196 C200.88706252 423.28491798 200.88600893 420.01858785 200.88647461 416.75219727 C200.88287933 415.773965 200.87928406 414.79573273 200.87557983 413.78785706 C200.8769545 412.90299622 200.87832916 412.01813538 200.87974548 411.10646057 C200.87836279 409.9463841 200.87836279 409.9463841 200.87695217 408.76287174 C201 407 201 407 202 406 C203.57418589 405.7501322 205.15732917 405.55618619 206.7421875 405.38671875 C226.69311383 403.12031454 242.47017477 398.96096571 256 383 C264.45340823 372.20680913 267.36670121 357.46200693 266 344 C264.15874243 331.30847464 258.0140884 318.76387081 248.01953125 310.55078125 C246.96121094 309.81214844 245.90289062 309.07351563 244.8125 308.3125 C243.76707031 307.56613281 242.72164062 306.81976563 241.64453125 306.05078125 C234.3765984 301.57376248 226.2335163 300.5351685 217.8605957 300.33007812 C216.91404019 300.29720955 215.96748468 300.26434097 214.99224567 300.23047638 C205.12134946 299.91346328 195.24542348 299.80479594 185.37010765 299.73963928 C182.13775112 299.71813311 178.90547657 299.69117967 175.673172 299.66296387 C167.67514331 299.5941094 159.67705888 299.53334913 151.67895508 299.47393799 C144.85400923 299.42309224 138.02911754 299.36842195 131.20424843 299.30812073 C128.01721915 299.28155632 124.83018443 299.2607657 121.64311218 299.2401123 C119.71283714 299.22352883 117.78256452 299.20665876 115.85229492 299.18945312 C114.96473007 299.18526871 114.07716522 299.18108429 113.16270447 299.17677307 C107.1138895 299.1138895 107.1138895 299.1138895 106 298 C105.89404133 294.99723307 105.85322446 292.01734104 105.85473633 289.01391602 C105.85137772 288.07088623 105.8480191 287.12785645 105.84455872 286.15625 C105.83501775 283.02212222 105.83310404 279.88804767 105.83203125 276.75390625 C105.8288209 274.58536252 105.825457 272.41681902 105.82194519 270.24827576 C105.81594607 265.69602964 105.8141061 261.14380253 105.81469727 256.59155273 C105.81479894 250.74569817 105.8011444 244.89996492 105.78392506 239.05413914 C105.77283072 234.57357722 105.77077726 230.09304487 105.77130699 225.61247063 C105.77012308 223.45660929 105.76567848 221.30074727 105.75797462 219.14489937 C105.74822619 216.13500489 105.7510323 213.12537687 105.75708008 210.11547852 C105.75146057 209.21721848 105.74584106 208.31895844 105.74005127 207.39347839 C105.77168482 201.22831518 105.77168482 201.22831518 108 199 C110.07662964 198.74946022 110.07662964 198.74946022 112.69091797 198.7484436 C114.17529106 198.74036934 114.17529106 198.74036934 115.68965149 198.73213196 C116.77948837 198.73625595 117.86932526 198.74037994 118.9921875 198.74462891 C120.70954353 198.73919823 120.70954353 198.73919823 122.46159363 198.73365784 C124.95576173 198.7267485 127.449945 198.72426126 129.94412231 198.72560501 C133.89571394 198.72656755 137.84703148 198.71365809 141.79858398 198.69662476 C153.0367561 198.6496041 164.27491753 198.6256818 175.51318359 198.61914062 C181.71739621 198.61537703 187.92140764 198.59723781 194.12553406 198.56404626 C197.40566054 198.54721335 200.68534103 198.54032687 203.96551514 198.54698563 C207.6348677 198.55408102 211.30338271 198.53671896 214.97265625 198.51416016 C216.04629929 198.52233261 217.11994232 198.53050507 218.22612 198.53892517 C231.16062806 198.3980648 239.58332429 193.01094946 248.78515625 184.3125 C258.8028323 173.65430758 260.50880593 159.82630075 260.2421875 145.89453125 C259.75939457 133.30606419 254.80845202 123.18566769 245.5625 114.5625 C231.95406479 103.33668645 216.07784766 103.55357017 199.25878906 103.56762695 C197.06984915 103.55859894 194.88091427 103.54826918 192.69198608 103.53674316 C186.77964858 103.50926927 180.86740727 103.4999017 174.95501423 103.49388909 C168.76503534 103.48448037 162.57512759 103.45827498 156.38519287 103.43388367 C144.67708789 103.39028365 132.96899676 103.36169677 121.26083541 103.33856028 C107.92582225 103.31147376 94.59088757 103.26756439 81.2559247 103.22227156 C53.83732211 103.12951834 26.418697 103.05779493 -1 103 C-1.0231312 89.86578049 -1.04091907 76.73156579 -1.05181217 63.59733009 C-1.05703929 57.49912422 -1.06413386 51.40093225 -1.07543945 45.30273438 C-1.08627438 39.42186725 -1.09227813 33.54101351 -1.09487724 27.66013718 C-1.09673039 25.41217208 -1.10034892 23.16420774 -1.10573006 20.91624832 C-1.11294849 17.77699425 -1.1139906 14.63779614 -1.11352539 11.49853516 C-1.11712067 10.56130112 -1.12071594 9.62406708 -1.12442017 8.65843201 C-1.1230455 7.80585312 -1.12167084 6.95327423 -1.12025452 6.07485962 C-1.12117631 5.33189447 -1.1220981 4.58892933 -1.12304783 3.82345009 C-1 2 -1 2 0 0 Z " fill="#92C044" transform="translate(156,76)"/>
<path d="M0 0 C1.06798828 -0.00638992 2.13597656 -0.01277985 3.23632812 -0.0193634 C4.09337341 -0.02550156 4.9504187 -0.03163971 5.83343506 -0.03796387 C15.95546992 0.31146628 25.92960792 4.959372 35.03417969 9.03800964 C36.21753906 9.51367371 36.21753906 9.51367371 37.42480469 9.99894714 C42.69843796 12.15634257 47.03250845 15.03910376 51.63574219 18.38175964 C54.29279574 20.21659793 56.98740879 21.57282685 59.89746094 22.94816589 C66.73922662 26.43784162 73.44566466 30.75157651 79.03417969 36.03800964 C79.03417969 36.69800964 79.03417969 37.35800964 79.03417969 38.03800964 C79.75605469 38.24425964 80.47792969 38.45050964 81.22167969 38.66300964 C84.95714419 40.48923673 86.47005455 42.78087772 89.03417969 46.03800964 C89.69417969 46.36800964 90.35417969 46.69800964 91.03417969 47.03800964 C91.03417969 47.69800964 91.03417969 48.35800964 91.03417969 49.03800964 C91.69417969 49.03800964 92.35417969 49.03800964 93.03417969 49.03800964 C93.03417969 49.69800964 93.03417969 50.35800964 93.03417969 51.03800964 C93.69417969 51.03800964 94.35417969 51.03800964 95.03417969 51.03800964 C96.27379761 52.47864669 97.50652662 53.92624766 98.69042969 55.41300964 C100.11696256 57.20535614 100.11696256 57.20535614 102.34667969 59.22550964 C122.4284345 80.24129957 134.23706066 113.2420846 135.03417969 142.03800964 C135.05996094 142.80419617 135.08574219 143.57038269 135.11230469 144.35978699 C136.43864547 188.43574906 120.73694616 227.87856457 90.87011719 260.08879089 C89.92746936 261.0744192 88.98188131 262.05723968 88.03417969 263.03800964 C87.43371826 263.66473572 86.83325684 264.29146179 86.21459961 264.93717957 C60.63690015 291.14906281 21.61093076 308.32712212 -14.96582031 311.03800964 C-17.03931841 311.05585414 -19.11295687 311.06023598 -21.18652344 311.05436707 C-22.26840942 311.05200546 -23.35029541 311.04964386 -24.46496582 311.04721069 C-25.2902478 311.04417435 -26.11552979 311.041138 -26.96582031 311.03800964 C-26.98894082 297.36498402 -27.0067339 283.69196301 -27.01763248 270.01892185 C-27.02286196 263.67070388 -27.02996076 257.32249924 -27.04125977 250.97428894 C-27.05208638 244.85352382 -27.05809666 238.73277156 -27.06069756 232.6119976 C-27.06255222 230.27110021 -27.0661736 227.93020356 -27.07155037 225.5893116 C-27.07875779 222.32292762 -27.07981138 219.05659749 -27.0793457 215.79020691 C-27.08294098 214.81197464 -27.08653625 213.83374237 -27.09024048 212.8258667 C-27.08886581 211.94100586 -27.08749115 211.05614502 -27.08607483 210.14447021 C-27.08699662 209.3710859 -27.08791842 208.59770159 -27.08886814 207.80088139 C-26.96582031 206.03800964 -26.96582031 206.03800964 -25.96582031 205.03800964 C-24.39163442 204.78814184 -22.80849114 204.59419583 -21.22363281 204.42472839 C-1.27270648 202.15832418 14.50435445 197.99897535 28.03417969 182.03800964 C36.48758792 171.24481878 39.4008809 156.50001657 38.03417969 143.03800964 C36.33102255 131.29839079 30.77469069 118.49950389 21.49755859 110.7552948 C19.87218092 109.54936943 18.21865399 108.40968975 16.53417969 107.28800964 C15.97859375 106.90257996 15.42300781 106.51715027 14.85058594 106.12004089 C11.69513498 103.97433425 8.63547974 102.3011522 5.03417969 101.03800964 C5.03417969 100.37800964 5.03417969 99.71800964 5.03417969 99.03800964 C-1.87638464 98.15567249 -8.67336354 97.84083915 -15.63598633 97.7408905 C-16.76871475 97.72123734 -17.90144318 97.70158417 -19.0684967 97.68133545 C-22.78551848 97.61783402 -26.50260676 97.56030371 -30.21972656 97.50285339 C-32.80761827 97.45981143 -35.39550377 97.41639475 -37.98338318 97.37261963 C-44.08166599 97.27036494 -50.17999874 97.17186917 -56.2783727 97.07522541 C-63.22651024 96.96490294 -70.17456481 96.8497315 -77.12261689 96.73417079 C-91.40359918 96.49675577 -105.68467461 96.26537143 -119.96582031 96.03800964 C-118.97582031 95.54300964 -118.97582031 95.54300964 -117.96582031 95.03800964 C-118.20980812 93.32466431 -118.20980812 93.32466431 -118.45872498 91.57670593 C-119.00628997 87.17336935 -119.10040566 82.85137021 -119.0793457 78.41886902 C-119.07949173 77.59840088 -119.07963776 76.77793274 -119.07978821 75.93260193 C-119.07909737 73.24895995 -119.0713442 70.56538934 -119.06347656 67.88175964 C-119.06160943 66.00989317 -119.06018692 64.1380262 -119.05918884 62.26615906 C-119.0553869 57.36058685 -119.04557663 52.45504467 -119.03448486 47.54948425 C-119.02422062 42.53524685 -119.01968051 37.52100455 -119.01464844 32.50675964 C-119.00395212 22.68382985 -118.98690383 12.86092225 -118.96582031 3.03800964 C-114.34582031 2.70800964 -109.72582031 2.37800964 -104.96582031 2.03800964 C-104.96582031 1.70800964 -104.96582031 1.37800964 -104.96582031 1.03800964 C-92.00431132 0.90691713 -79.04279593 0.77647803 -66.08127213 0.64685822 C-60.06182791 0.58664144 -54.04238607 0.52620506 -48.02294922 0.46525574 C-42.20688132 0.40637388 -36.39080776 0.34808334 -30.57472992 0.29019165 C-28.36294089 0.26807432 -26.15115393 0.24574891 -23.9393692 0.22320557 C-18.07592686 0.16351211 -12.212483 0.1067006 -6.34893799 0.05801964 C-4.23261156 0.04024977 -2.11630383 0.02028331 0 0 Z " fill="#529446" transform="translate(383.9658203125,276.9619903564453)"/>
<path d="M0 0 C44.62844591 0.58021815 87.00666115 23.72626723 117.98828125 54.60546875 C124.79210076 61.82017611 130.2195173 69.97131348 135.625 78.25 C136.60146484 79.71373047 136.60146484 79.71373047 137.59765625 81.20703125 C156.75343966 111.70792557 157.77836426 148.04186024 157.8125 182.875 C157.81367828 183.82942993 157.81485657 184.78385986 157.81607056 185.76721191 C157.81569004 188.48291326 157.80651727 191.19839783 157.79296875 193.9140625 C157.79175018 194.74191254 157.79053162 195.56976257 157.78927612 196.42269897 C157.74179847 202.13320153 157.74179847 202.13320153 156.625 203.25 C123.58111461 207.21073969 83.77958625 189.22085707 58.25 169.1875 C56.69607028 167.88954207 55.15408806 166.57713303 53.625 165.25 C52.84253906 164.57710937 52.06007812 163.90421875 51.25390625 163.2109375 C48.66680477 160.9342882 46.1389168 158.60725242 43.625 156.25 C43.1206543 155.77965332 42.61630859 155.30930664 42.09667969 154.82470703 C12.21063002 126.73036515 -5.12889785 86.30530111 -6.46913147 45.37527466 C-6.50517989 42.52705932 -6.51379995 39.6804634 -6.5078125 36.83203125 C-6.50876923 35.80816818 -6.50972595 34.78430511 -6.51071167 33.72941589 C-6.51138576 31.59264056 -6.50958595 29.45586308 -6.50537109 27.3190918 C-6.49995026 24.03234375 -6.50537321 20.74572859 -6.51171875 17.45898438 C-6.51105902 15.3749997 -6.50978006 13.2910151 -6.5078125 11.20703125 C-6.50983673 10.22176956 -6.51186096 9.23650787 -6.51394653 8.22138977 C-6.51079437 7.31922226 -6.50764221 6.41705475 -6.50439453 5.48754883 C-6.50359894 4.69101395 -6.50280334 3.89447906 -6.50198364 3.07380676 C-6.22973122 -0.83642761 -3.2910103 0.04973819 0 0 Z " fill="#93C045" transform="translate(161.375,385.75)"/>
<path d="M0 0 C144.32638951 -0.19655389 144.32638951 -0.19655389 189.80108643 0.20852661 C193.10069888 0.23767749 196.4001732 0.25827541 199.69989014 0.27072144 C230.96316075 0.40000991 260.30993905 4.4846475 287 22 C286.34 22.33 285.68 22.66 285 23 C282.6301686 21.89917509 280.3595697 20.73811149 278.0625 19.5 C259.4109605 9.81113895 240.26174565 3.80784808 219.17965698 3.87974548 C218.24414635 3.87889106 217.30863571 3.87803663 216.34477627 3.87715632 C213.23878261 3.87552124 210.13284407 3.88099031 207.02685547 3.88647461 C204.7889557 3.88675693 202.55105584 3.88659786 200.31315613 3.8860321 C194.25814812 3.8857459 188.20316003 3.89161412 182.14815664 3.89860606 C175.81273087 3.90486897 169.47730461 3.90544572 163.14187622 3.90663147 C152.51482764 3.90938368 141.8877869 3.91562447 131.26074219 3.92456055 C120.31901078 3.93375162 109.37728136 3.94082415 98.43554688 3.94506836 C97.42241573 3.94546244 97.42241573 3.94546244 96.3888173 3.94586449 C93.00013948 3.94716961 89.61146165 3.9484333 86.2227838 3.94967639 C58.14851748 3.96002862 30.07425919 3.97770387 2 4 C2.01252808 5.08470581 2.02505615 6.16941162 2.03796387 7.2869873 C2.15617254 17.52692883 2.27389691 27.76687582 2.39115143 38.00682831 C2.45144334 43.27083107 2.51190378 48.53483178 2.57275391 53.79882812 C2.63150983 58.88220269 2.68981712 63.96558222 2.74781799 69.04896545 C2.76998535 70.9849516 2.79231228 72.92093593 2.81480408 74.85691833 C2.84636409 77.57583148 2.87734829 80.29475065 2.90820312 83.01367188 C2.91755386 83.80777466 2.9269046 84.60187744 2.9365387 85.42004395 C2.99096139 90.280372 3.00811055 95.13936225 3 100 C4.10692137 99.99631283 5.21384274 99.99262566 6.35430717 99.98882675 C33.34896993 99.89983554 60.34361355 99.83420563 87.33839226 99.79275131 C100.3931285 99.77216897 113.44776756 99.74413139 126.50244141 99.69824219 C137.88736926 99.65824165 149.27222669 99.63253577 160.65722287 99.62364602 C166.67961993 99.61845361 172.70181559 99.60634045 178.7241478 99.57707977 C184.40568838 99.54970151 190.08694677 99.54159986 195.76854706 99.54756927 C197.84120091 99.54647898 199.91386532 99.53865992 201.98646164 99.5231781 C214.88154298 99.43167152 226.5370261 100.61425636 239 104 C238.67 104.99 238.34 105.98 238 107 C240.31 107.33 242.62 107.66 245 108 C244.01 108.495 244.01 108.495 243 109 C243.33 109.99 243.66 110.98 244 112 C241.62646292 111.08121145 239.28262412 110.13338546 236.98046875 109.046875 C236.24441406 108.70140625 235.50835937 108.3559375 234.75 108 C234.06421875 107.67 233.3784375 107.34 232.671875 107 C225.70877796 104.39392859 218.8743129 103.70446928 211.48973083 103.7215271 C210.57549239 103.7157347 209.66125394 103.7099423 208.7193113 103.70397437 C205.67929272 103.68707281 202.63942687 103.68410638 199.59936523 103.68115234 C197.41086967 103.67184737 195.22237764 103.66167786 193.03388977 103.65071106 C187.10899933 103.62346122 181.1841326 103.60827648 175.25919604 103.59528303 C169.06120259 103.57963057 162.8632574 103.55284707 156.66529846 103.5272522 C144.935848 103.4805019 133.20638843 103.44373961 121.47689253 103.41057932 C112.10266021 103.38384633 102.72845327 103.3523258 93.35424805 103.31738281 C92.69349954 103.31492126 92.03275103 103.31245972 91.35197984 103.30992357 C88.03695148 103.29754832 84.72192344 103.28508749 81.40689552 103.27259517 C53.93796632 103.16933105 26.46900595 103.08005268 -1 103 C-1.0231312 89.86578049 -1.04091907 76.73156579 -1.05181217 63.59733009 C-1.05703929 57.49912422 -1.06413386 51.40093225 -1.07543945 45.30273438 C-1.08627438 39.42186725 -1.09227813 33.54101351 -1.09487724 27.66013718 C-1.09673039 25.41217208 -1.10034892 23.16420774 -1.10573006 20.91624832 C-1.11294849 17.77699425 -1.1139906 14.63779614 -1.11352539 11.49853516 C-1.11712067 10.56130112 -1.12071594 9.62406708 -1.12442017 8.65843201 C-1.1230455 7.80585312 -1.12167084 6.95327423 -1.12025452 6.07485962 C-1.12117631 5.33189447 -1.1220981 4.58892933 -1.12304783 3.82345009 C-1 2 -1 2 0 0 Z " fill="#C4DA9B" transform="translate(156,76)"/>
<path d="M0 0 C-5.36389417 3.31455272 -9.75552551 3.44196434 -15.86083984 3.43237305 C-16.83707306 3.4425647 -17.81330627 3.45275635 -18.81912231 3.46325684 C-22.03311933 3.49335511 -25.24681814 3.50264811 -28.4609375 3.51171875 C-30.69439685 3.52856775 -32.92784673 3.54671828 -35.1612854 3.56611633 C-41.03022299 3.61359825 -46.89912218 3.6434195 -52.76818848 3.66955566 C-58.76090071 3.69937015 -64.75348066 3.74589749 -70.74609375 3.79101562 C-82.49732661 3.8770283 -94.24858672 3.9443828 -106 4 C-106 4.33 -106 4.66 -106 5 C-110.95 5 -115.9 5 -121 5 C-120.83701416 6.42739502 -120.67402832 7.85479004 -120.50610352 9.32543945 C-119.74028942 17.80410158 -119.87622509 26.28796832 -119.90234375 34.79296875 C-119.90421237 36.59328675 -119.90563418 38.39360526 -119.90663147 40.19392395 C-119.91042168 44.89724164 -119.92022149 49.60052769 -119.93133545 54.30383301 C-119.94162535 59.11726453 -119.94614522 63.93070124 -119.95117188 68.74414062 C-119.96184742 78.1627742 -119.97888106 87.58138445 -120 97 C-119.42077065 97.00846388 -118.84154131 97.01692776 -118.24475956 97.02564812 C-104.12134745 97.23266528 -89.99812521 97.44999907 -75.87504673 97.67867851 C-69.04510105 97.78902198 -62.21513448 97.89593111 -55.38500977 97.99462891 C-48.79074048 98.08992831 -42.19667212 98.19496564 -35.60264397 98.3058815 C-33.08978197 98.34656926 -30.57686538 98.38402099 -28.06390572 98.41814804 C-24.53792782 98.46659098 -21.01232142 98.52664827 -17.48657227 98.58935547 C-16.45294556 98.60086639 -15.41931885 98.61237732 -14.35437012 98.62423706 C-8.2954651 98.74632517 -2.87256072 99.48712195 3 101 C3 101.33 3 101.66 3 102 C2.44982208 101.97232544 1.89964417 101.94465088 1.33279419 101.9161377 C-15.19501985 101.12206556 -31.71370531 100.86285684 -48.2578125 100.71875 C-49.33897087 100.70920288 -50.42012924 100.69965576 -51.53404999 100.68981934 C-60.56014567 100.6113535 -69.58630378 100.5413907 -78.61248779 100.47393799 C-85.40518379 100.42308966 -92.1978255 100.36845082 -98.99044418 100.30812073 C-102.15532592 100.28158526 -105.32021329 100.26078477 -108.48513794 100.2401123 C-110.39911156 100.22353179 -112.31308271 100.206662 -114.22705078 100.18945312 C-115.10676041 100.18526871 -115.98647003 100.18108429 -116.89283752 100.17677307 C-122.88609901 100.11390099 -122.88609901 100.11390099 -124 99 C-124.10595867 95.99723307 -124.14677554 93.01734104 -124.14526367 90.01391602 C-124.14862228 89.07088623 -124.1519809 88.12785645 -124.15544128 87.15625 C-124.16498225 84.02212222 -124.16689596 80.88804767 -124.16796875 77.75390625 C-124.1711791 75.58536252 -124.174543 73.41681902 -124.17805481 71.24827576 C-124.18405393 66.69602964 -124.1858939 62.14380253 -124.18530273 57.59155273 C-124.18520106 51.74569817 -124.1988556 45.89996492 -124.21607494 40.05413914 C-124.22716928 35.57357722 -124.22922274 31.09304487 -124.22869301 26.61247063 C-124.22987692 24.45660929 -124.23432152 22.30074727 -124.24202538 20.14489937 C-124.25177381 17.13500489 -124.2489677 14.12537687 -124.24291992 11.11547852 C-124.24853943 10.21721848 -124.25415894 9.31895844 -124.25994873 8.39347839 C-124.22831518 2.22831518 -124.22831518 2.22831518 -122 0 C-119.90381718 -0.26450634 -119.90381718 -0.26450634 -117.26197815 -0.28520203 C-115.76243088 -0.30411499 -115.76243088 -0.30411499 -114.23258972 -0.32341003 C-113.13175552 -0.32714127 -112.03092133 -0.3308725 -110.89672852 -0.3347168 C-109.74058044 -0.34636871 -108.58443237 -0.35802063 -107.39324951 -0.37002563 C-103.55515006 -0.40613685 -99.71711431 -0.42791406 -95.87890625 -0.44921875 C-93.22093335 -0.47045854 -90.5629739 -0.49237617 -87.90501404 -0.51509094 C-82.32725319 -0.56118749 -76.74948092 -0.59957283 -71.17163086 -0.63305664 C-64.72092798 -0.67184038 -58.27037358 -0.72110697 -51.81979233 -0.77638692 C-45.61869936 -0.82942333 -39.41757707 -0.87660575 -33.2164135 -0.92057228 C-30.57572431 -0.93966283 -27.93504401 -0.96002601 -25.29437447 -0.98166466 C-21.60715005 -1.01074934 -17.91994755 -1.03310234 -14.23266602 -1.0534668 C-13.13385605 -1.06327072 -12.03504608 -1.07307465 -10.90293884 -1.08317566 C-9.90042084 -1.08732483 -8.89790283 -1.091474 -7.86500549 -1.0957489 C-6.55672964 -1.10429665 -6.55672964 -1.10429665 -5.22202396 -1.11301708 C-3 -1 -3 -1 0 0 Z " fill="#9ABB93" transform="translate(386,275)"/>
<path d="M0 0 C1.33098113 -0.00339833 1.33098113 -0.00339833 2.68885076 -0.00686532 C5.63855849 -0.01315516 8.58821969 -0.0123792 11.53793335 -0.0115509 C13.66267963 -0.01454557 15.78742538 -0.01794881 17.91217041 -0.02172852 C23.6686623 -0.03054252 29.4251393 -0.03290557 35.18163729 -0.0335443 C38.78376576 -0.03425641 42.38589049 -0.03639381 45.98801804 -0.03904152 C58.57106515 -0.04828716 71.1541017 -0.05237749 83.7371521 -0.05158997 C95.43919573 -0.05098976 107.14119317 -0.06153242 118.84322512 -0.07733363 C128.91150046 -0.09044098 138.97976076 -0.09577251 149.04804456 -0.09513456 C155.05169575 -0.09488046 161.05530588 -0.09768263 167.05894852 -0.10831261 C172.71100255 -0.11804717 178.36297675 -0.11803626 184.01503372 -0.11079597 C186.07926552 -0.10975669 188.14350243 -0.11207364 190.20772552 -0.11815643 C201.57105592 -0.1494493 212.52159022 0.22583205 223.74252319 2.13371277 C223.74252319 2.46371277 223.74252319 2.79371277 223.74252319 3.13371277 C144.21252319 3.13371277 64.68252319 3.13371277 -17.25747681 3.13371277 C-17.25747681 20.95371277 -17.25747681 38.77371277 -17.25747681 57.13371277 C-17.58747681 57.13371277 -17.91747681 57.13371277 -18.25747681 57.13371277 C-18.42543658 49.48004582 -18.58537604 41.82624187 -18.73965454 34.17228699 C-18.79313003 31.56677933 -18.84846352 28.96130914 -18.90567017 26.35588074 C-18.98742638 22.61784445 -19.06256985 18.87972577 -19.13638306 15.14152527 C-19.16341812 13.97066376 -19.19045319 12.79980225 -19.2183075 11.59346008 C-19.23840378 10.51249054 -19.25850006 9.431521 -19.27920532 8.3177948 C-19.29919083 7.36293182 -19.31917633 6.40806885 -19.33976746 5.42427063 C-19.25747681 3.13371277 -19.25747681 3.13371277 -18.25747681 1.13371277 C-12.37272498 -0.25001131 -6.01471177 -0.01147405 0 0 Z " fill="#96B857" transform="translate(176.25747680664063,78.86628723144531)"/>
<path d="M0 0 C2.65676786 3.98515178 3.40976864 7.93672772 4.5 12.5625 C4.83100708 13.96628906 4.83100708 13.96628906 5.16870117 15.3984375 C14.2274512 55.290676 6.3936511 98.17605477 -15 133 C-17.43068706 136.49911247 -19.97660064 139.90378987 -22.68432617 143.19360352 C-25.41452971 146.589119 -25.41452971 146.589119 -25.8984375 150.80078125 C-24.93932131 153.14853088 -23.94349332 154.39450552 -22 156 C-22.495 156.99 -22.495 156.99 -23 158 C-26.75176965 154.52009772 -28.9164654 152.31566998 -29.25 147.0625 C-28.23231106 142.37746351 -25.5898127 138.16105287 -22 135 C-20.68 135 -19.36 135 -18 135 C-17.75121094 134.33742188 -17.50242187 133.67484375 -17.24609375 132.9921875 C-15.40134557 128.5624787 -13.1869848 124.33224474 -11.00976562 120.05859375 C-6.23287923 111.00327964 -6.23287923 111.00327964 -5 101 C-4.67 100.34 -4.34 99.68 -4 99 C-3.82018043 97.64992606 -3.67976633 96.29443896 -3.5625 94.9375 C-1.79905914 77.79905914 -1.79905914 77.79905914 2 74 C2.53802129 69.49733213 2.7699082 64.96221344 3.0625 60.4375 C3.10669067 59.76771118 3.15088135 59.09792236 3.19641113 58.40783691 C3.80573404 49.02359144 4.20852948 39.65653308 4.25 30.25 C4.259104 29.23993896 4.26820801 28.22987793 4.27758789 27.18920898 C4.27364014 26.26567627 4.26969238 25.34214355 4.265625 24.390625 C4.26336914 23.58657227 4.26111328 22.78251953 4.25878906 21.95410156 C4.17041431 19.76497962 4.17041431 19.76497962 2 18 C0.20925152 12.05294642 -0.22857874 6.17162606 0 0 Z " fill="#9ABC5F" transform="translate(507,177)"/>
<path d="M0 0 C23.52771496 27.88469921 23.1777074 70.28961365 23.1875 104.625 C23.18849701 105.57879547 23.18949402 106.53259094 23.19052124 107.51528931 C23.19019922 110.23162845 23.18122858 112.9477585 23.16796875 115.6640625 C23.16676025 116.49194778 23.16555176 117.31983307 23.16430664 118.17280579 C23.11675105 123.88324895 23.11675105 123.88324895 22 125 C8.84643004 126.57662654 -4.25654039 122.82187327 -17 120 C-13.56635959 119.05482587 -10.56280286 119 -7 119 C-5.700625 118.690625 -5.700625 118.690625 -4.375 118.375 C-1.44063048 117.9116785 -0.5896341 118.6526258 2 120 C4.07713797 120.7334785 4.07713797 120.7334785 6.25 121.25 C7.30960937 121.53617188 7.30960937 121.53617188 8.390625 121.828125 C10.99251166 121.99950676 12.66604031 121.66852845 15.16308594 121.01074219 C16.42926758 120.67719727 17.69544922 120.34365234 19 120 C19.14126795 112.08733962 19.24673452 104.17523675 19.31087303 96.26161289 C19.34171249 92.58385635 19.38326844 88.90698394 19.45263672 85.22973633 C19.80082198 66.28328655 18.6591444 49.3051275 13 31 C11.68 31.33 10.36 31.66 9 32 C8.01879536 28.94736336 8.01879536 27.05263664 9 24 C8.34 24 7.68 24 7 24 C6.80664062 23.07316406 6.61328125 22.14632813 6.4140625 21.19140625 C6.15367187 19.99386719 5.89328125 18.79632813 5.625 17.5625 C5.36976563 16.36753906 5.11453125 15.17257812 4.8515625 13.94140625 C4.57054687 12.97074219 4.28953125 12.00007813 4 11 C3.34 10.67 2.68 10.34 2 10 C0.55487596 6.3871899 0 3.93312158 0 0 Z " fill="#B7D089" transform="translate(296,464)"/>
<path d="M0 0 C18.37830487 0.23893787 35.28500682 5.53902929 52.625 11.25 C52.625 11.58 52.625 11.91 52.625 12.25 C48.75204544 11.83668074 45.2923546 11.22201308 41.62109375 9.91015625 C26.47904445 4.5416115 11.53011866 3.86499792 -4.375 3.25 C-4.045 12.16 -3.715 21.07 -3.375 30.25 C-3.045 30.25 -2.715 30.25 -2.375 30.25 C-2.34994385 31.15766113 -2.3248877 32.06532227 -2.29907227 33.00048828 C-2.20356941 36.38878234 -2.10435916 39.77692669 -2.00268555 43.16503906 C-1.95954663 44.62756148 -1.91785805 46.09012747 -1.87768555 47.55273438 C-1.8194693 49.6628936 -1.75592712 51.77283775 -1.69140625 53.8828125 C-1.65474854 55.15012207 -1.61809082 56.41743164 -1.58032227 57.72314453 C-1.39117113 60.97222576 -0.95214115 64.05113043 -0.375 67.25 C-0.33596516 68.68696991 -0.33036134 70.12569325 -0.375 71.5625 C-0.375 72.779375 -0.375 73.99625 -0.375 75.25 C-0.045 75.58 0.285 75.91 0.625 76.25 C1.04839421 77.84207821 1.41466289 79.44957573 1.75 81.0625 C1.93820313 81.93519531 2.12640625 82.80789063 2.3203125 83.70703125 C2.62757521 86.2714931 2.31512428 87.80210387 1.625 90.25 C-3.24155498 72.32547499 -6.54704622 55.4968383 -6.5078125 36.83203125 C-6.50876923 35.80816818 -6.50972595 34.78430511 -6.51071167 33.72941589 C-6.51138576 31.59264056 -6.50958595 29.45586308 -6.50537109 27.3190918 C-6.49995026 24.03234375 -6.50537321 20.74572859 -6.51171875 17.45898438 C-6.51105902 15.3749997 -6.50978006 13.2910151 -6.5078125 11.20703125 C-6.50983673 10.22176956 -6.51186096 9.23650787 -6.51394653 8.22138977 C-6.51079437 7.31922226 -6.50764221 6.41705475 -6.50439453 5.48754883 C-6.50359894 4.69101395 -6.50280334 3.89447906 -6.50198364 3.07380676 C-6.22973122 -0.83642761 -3.2910103 0.04973819 0 0 Z " fill="#C2D995" transform="translate(161.375,385.75)"/>
<path d="M0 0 C0 0.66 0 1.32 0 2 C-1.98 2.66 -3.96 3.32 -6 4 C-6.103125 4.763125 -6.20625 5.52625 -6.3125 6.3125 C-7.06124739 9.23942162 -7.51692929 10.31505916 -10 12 C-12.6875 12.1875 -12.6875 12.1875 -15 12 C-15 11.34 -15 10.68 -15 10 C-27.87 10.99 -27.87 10.99 -41 12 C-41 45.66 -41 79.32 -41 114 C-35.51257291 114.01415292 -35.51257291 114.01415292 -31 112 C-29.5112814 111.91330568 -28.018555 111.89296506 -26.52734375 111.90234375 C-25.62822266 111.90556641 -24.72910156 111.90878906 -23.80273438 111.91210938 C-22.38444336 111.92467773 -22.38444336 111.92467773 -20.9375 111.9375 C-19.98810547 111.94201172 -19.03871094 111.94652344 -18.06054688 111.95117188 C-15.70696935 111.9629989 -13.35351523 111.97947975 -11 112 C-11 112.33 -11 112.66 -11 113 C-13.91496326 113.51225296 -16.83130038 114.00987041 -19.75 114.5 C-20.55566406 114.64308594 -21.36132812 114.78617188 -22.19140625 114.93359375 C-26.94565042 115.71972861 -31.50965888 116.07592527 -36.33300781 116.04101562 C-37.93151581 116.03213318 -37.93151581 116.03213318 -39.56231689 116.02307129 C-40.36675232 116.01545776 -41.17118774 116.00784424 -42 116 C-42.0231205 102.32697438 -42.04091359 88.65395336 -42.05181217 74.98091221 C-42.05704164 68.63269424 -42.06414044 62.2844896 -42.07543945 55.9362793 C-42.08626606 49.81551418 -42.09227635 43.69476191 -42.09487724 37.57398796 C-42.0967319 35.23309057 -42.10035329 32.89219391 -42.10573006 30.55130196 C-42.11293748 27.28491798 -42.11399107 24.01858785 -42.11352539 20.75219727 C-42.11712067 19.773965 -42.12071594 18.79573273 -42.12442017 17.78785706 C-42.1230455 16.90299622 -42.12167084 16.01813538 -42.12025452 15.10646057 C-42.12117631 14.33307626 -42.1220981 13.55969194 -42.12304783 12.76287174 C-42 11 -42 11 -41 10 C-39.42581411 9.7501322 -37.84267083 9.55618619 -36.2578125 9.38671875 C-19.61531073 7.74857901 -19.61531073 7.74857901 -4.3515625 1.375 C-2 0 -2 0 0 0 Z " fill="#A2BF9A" transform="translate(399,472)"/>
<path d="M0 0 C1.98 0 3.96 0 6 0 C7 3 7 3 7 6 C7.99 6 8.98 6 10 6 C10.33 8.97 10.66 11.94 11 15 C11.66 14.67 12.32 14.34 13 14 C15.04492537 20.84966872 15.42050691 27.37682403 15.625 34.5 C15.66367187 35.60859375 15.70234375 36.7171875 15.7421875 37.859375 C15.83575243 40.57275797 15.92149483 43.28614661 16 46 C15.34 46 14.68 46 14 46 C13.896875 47.051875 13.79375 48.10375 13.6875 49.1875 C13.01274712 52.92931141 12.13655048 54.9233673 10 58 C9.34 58.99 8.68 59.98 8 61 C7.67 60.34 7.34 59.68 7 59 C4.525 61.475 4.525 61.475 2 64 C3.88210798 59.2465831 5.87943081 54.54484086 7.87890625 49.83984375 C11.93698593 39.56031787 11.54229614 24.95347948 8.1328125 14.54296875 C5.86092744 9.4429785 2.99555363 4.70260885 0 0 Z " fill="#93B852" transform="translate(406,194)"/>
<path d="M0 0 C5.71552179 1.53702438 10.25539226 4.4033498 15.1875 7.5625 C16.03175537 8.10044189 16.87601074 8.63838379 17.74584961 9.19262695 C24.24154176 13.38985302 30.2114676 17.85985841 36 23 C36.8353125 23.71542969 37.670625 24.43085938 38.53125 25.16796875 C49.33866062 34.59109683 57.92816262 45.23572637 66 57 C65.505 57.99 65.505 57.99 65 59 C63.68 58.67 62.36 58.34 61 58 C61 56.35 61 54.7 61 53 C59.68 53 58.36 53 57 53 C57 51.02 57 49.04 57 47 C55.35 47 53.7 47 52 47 C51.85304688 46.41992188 51.70609375 45.83984375 51.5546875 45.2421875 C49.89991721 39.47902201 47.92930442 35.54725645 43 32 C40.69747517 30.93097061 38.3627974 29.92824183 36 29 C33.98817543 27.68457624 31.98600337 26.3540932 30 25 C29.01 24.67 28.02 24.34 27 24 C26.33333333 22.33333333 25.66666667 20.66666667 25 19 C24.01 18.67 23.02 18.34 22 18 C22 17.34 22 16.68 22 16 C21.01 15.67 20.02 15.34 19 15 C19 14.01 19 13.02 19 12 C18.23236328 11.62875 18.23236328 11.62875 17.44921875 11.25 C14.18822368 9.58569629 10.99939659 7.80058026 7.8125 6 C7.17119141 5.64421875 6.52988281 5.2884375 5.86914062 4.921875 C1.11572625 2.2314525 1.11572625 2.2314525 0 0 Z " fill="#B9D188" transform="translate(230,405)"/>
<path d="M0 0 C0 0.66 0 1.32 0 2 C0.81483353 1.83610275 1.62966705 1.67220551 2.4691925 1.50334167 C6.50190803 0.92844945 10.43200673 0.89513926 14.49291992 0.9465332 C15.3246875 0.95292816 16.15645508 0.95932312 17.01342773 0.96591187 C19.75252494 0.98861841 22.49145962 1.01927011 25.23046875 1.05078125 C27.14610096 1.07003396 29.06173517 1.08908908 30.97737122 1.10795593 C34.99123065 1.14889026 39.00501614 1.19409425 43.01879883 1.24194336 C48.13821947 1.30236984 53.25766385 1.34938637 58.37725353 1.39277363 C62.3349669 1.42831452 66.29254963 1.47252853 70.25014687 1.51912498 C72.13617202 1.54003489 74.02223269 1.55797625 75.90831566 1.5727787 C94.8055936 1.72833827 94.8055936 1.72833827 104 4 C104 4.33 104 4.66 104 5 C62.09 4.34 20.18 3.68 -23 3 C-20.21101954 0.21101954 -18.2068101 0.59847794 -14.3125 0.375 C-13.11238281 0.30023438 -11.91226562 0.22546875 -10.67578125 0.1484375 C-7.1123343 0.00453635 -3.56589086 -0.02746514 0 0 Z " fill="#57874D" transform="translate(287,370)"/>
<path d="M0 0 C1.27230469 0.00902344 2.54460937 0.01804687 3.85546875 0.02734375 C5.31919922 0.04474609 5.31919922 0.04474609 6.8125 0.0625 C2.98458989 3.28600325 0.76923005 3.0625 -4.1875 3.0625 C-6.74601025 3.87702316 -6.74601025 3.87702316 -8.1875 6.0625 C-8.5899422 10.97229483 -8.01539714 15.21338818 -7.1875 20.0625 C-7.5175 20.3925 -7.8475 20.7225 -8.1875 21.0625 C-8.03563083 24.77949795 -7.78349126 28.47658407 -7.50390625 32.18554688 C-7.45105469 32.97380859 -7.39820313 33.76207031 -7.34375 34.57421875 C-7.29025391 35.29053467 -7.23675781 36.00685059 -7.18164062 36.74487305 C-7.1875 39.0625 -7.1875 39.0625 -7.67163086 41.67749023 C-8.38620747 46.36637085 -8.31021947 50.97523502 -8.28515625 55.7109375 C-8.28303383 57.22973007 -8.28303383 57.22973007 -8.28086853 58.77920532 C-8.27529143 61.99866751 -8.26274312 65.21805899 -8.25 68.4375 C-8.24498204 70.62630108 -8.24041965 72.81510325 -8.23632812 75.00390625 C-8.2253295 80.35679477 -8.2086142 85.70964233 -8.1875 91.0625 C-7.8575 91.0625 -7.5275 91.0625 -7.1875 91.0625 C-7.1875 94.6925 -7.1875 98.3225 -7.1875 102.0625 C-5.5375 102.0625 -3.8875 102.0625 -2.1875 102.0625 C-2.1875 102.3925 -2.1875 102.7225 -2.1875 103.0625 C-4.8275 103.0625 -7.4675 103.0625 -10.1875 103.0625 C-10.1875 69.4025 -10.1875 35.7425 -10.1875 1.0625 C-6.62704823 -0.12431726 -3.74941663 -0.03439832 0 0 Z " fill="#58894D" transform="translate(368.1875,482.9375)"/>
<path d="M0 0 C13.91806648 13.1777438 24.47264443 34.44824988 29 53 C28.6171875 55.37890625 28.6171875 55.37890625 28 57 C27.67 55.02 27.34 53.04 27 51 C26.01 51 25.02 51 24 51 C24 50.34 24 49.68 24 49 C23.01 49 22.02 49 21 49 C20.505 42.565 20.505 42.565 20 36 C19.34 36 18.68 36 18 36 C18 35.01 18 34.02 18 33 C17.34 33 16.68 33 16 33 C16 32.34 16 31.68 16 31 C15.01 31 14.02 31 13 31 C13 28.03 13 25.06 13 22 C12.01 22 11.02 22 10 22 C10.0825 21.2575 10.165 20.515 10.25 19.75 C9.92894816 16.21842973 8.64734383 15.23369636 6 13 C5.01 13.33 4.02 13.66 3 14 C2.29925156 10.846632 2 8.27275026 2 5 C1.38655243 3.31301918 0.72904086 1.64034193 0 0 Z " fill="#ADCAA4" transform="translate(485,335)"/>
<path d="M0 0 C2.65676786 3.98515178 3.40976864 7.93672772 4.5 12.5625 C4.83100708 13.96628906 4.83100708 13.96628906 5.16870117 15.3984375 C10.63244645 39.45926589 9.76758057 63.08376588 4 87 C3.67 87 3.34 87 3 87 C3.06058594 86.35675781 3.12117188 85.71351563 3.18359375 85.05078125 C3.46327745 82.03450008 3.73153191 79.01730012 4 76 C4.08886475 75.04520752 4.17772949 74.09041504 4.26928711 73.10668945 C4.96406345 65.04741535 5.1551812 57.03402994 5.13037109 48.95166016 C5.12498718 46.87004379 5.13036791 44.78864136 5.13671875 42.70703125 C5.31076572 31.29563671 5.31076572 31.29563671 4 20 C3.34 19.34 2.68 18.68 2 18 C0.20925152 12.05294642 -0.22857874 6.17162606 0 0 Z " fill="#D1E4AF" transform="translate(507,177)"/>
<path d="M0 0 C0.66 0 1.32 0 2 0 C1.44945225 6.00165013 0.17623713 11.17823997 -1.9375 16.8125 C-2.24397461 17.63073242 -2.55044922 18.44896484 -2.86621094 19.29199219 C-8.03031117 32.63300928 -14.57254103 45.12081307 -23.68457031 56.19433594 C-26.41475363 59.58940868 -26.41475363 59.58940868 -26.8984375 63.80078125 C-25.93932131 66.14853088 -24.94349332 67.39450552 -23 69 C-23.495 69.99 -23.495 69.99 -24 71 C-27.75176965 67.52009772 -29.9164654 65.31566998 -30.25 60.0625 C-29.23231106 55.37746351 -26.5898127 51.16105287 -23 48 C-21.68 48 -20.36 48 -19 48 C-18.74992187 47.33484375 -18.49984375 46.6696875 -18.2421875 45.984375 C-16.71234376 42.30890136 -14.92903499 38.79685272 -13.125 35.25 C-7.40412721 23.86341081 -2.31938924 12.65121404 0 0 Z " fill="#D9EABA" transform="translate(508,264)"/>
<path d="M0 0 C4.08887436 3.74454809 6.73830153 7.51820378 9.375 12.375 C9.75640137 13.06746826 10.13780273 13.75993652 10.53076172 14.47338867 C13.18736157 19.35783683 15.71838832 24.30027074 18.125 29.3125 C18.43228027 29.9401123 18.73956055 30.56772461 19.05615234 31.21435547 C21.11938678 35.64183965 21.11938678 35.64183965 20 39 C17 38 17 38 15 35 C14.875 32.3125 14.875 32.3125 15 30 C14.34 30 13.68 30 13 30 C12.731875 28.906875 12.46375 27.81375 12.1875 26.6875 C11.36002133 23.11714229 11.36002133 23.11714229 9.5 21.5625 C7.41591097 19.39157392 7.34480198 17.05523892 6.73828125 14.19140625 C5.61512697 10.8575991 3.51970853 8.49650461 1.2421875 5.859375 C0 4 0 4 0 0 Z " fill="#B7D083" transform="translate(486,138)"/>
<path d="M0 0 C1.51953125 1.17578125 1.51953125 1.17578125 3 3 C3.07421875 5.48046875 3.07421875 5.48046875 2.6875 8.1875 C2.56761719 9.08855469 2.44773437 9.98960937 2.32421875 10.91796875 C2.21722656 11.60503906 2.11023438 12.29210937 2 13 C1.34 13 0.68 13 0 13 C-1.37482707 14.63260714 -2.70647667 16.30225062 -4 18 C-4.66 18.66 -5.32 19.32 -6 20 C-6.33 20.66 -6.66 21.32 -7 22 C-7.886875 22.268125 -8.77375 22.53625 -9.6875 22.8125 C-13.71152462 24.25507487 -15.84969592 26.14972488 -19 29 C-19.66 28.67 -20.32 28.34 -21 28 C-20.35933594 27.45472656 -19.71867187 26.90945313 -19.05859375 26.34765625 C-10.09483597 18.53275565 -3.82074239 11.36730188 0 0 Z " fill="#86AF7E" transform="translate(420,443)"/>
<path d="M0 0 C12.65432668 4.55645987 24.71997743 16.42356393 34 26 C33.67 26.66 33.34 27.32 33 28 C32.401875 27.505 31.80375 27.01 31.1875 26.5 C29.02970006 24.71723582 29.02970006 24.71723582 26 25 C25.938125 24.236875 25.87625 23.47375 25.8125 22.6875 C25.23064738 19.76948191 25.23064738 19.76948191 22.4375 18.1875 C21.633125 17.795625 20.82875 17.40375 20 17 C19.67 18.32 19.34 19.64 19 21 C18.95875 20.401875 18.9175 19.80375 18.875 19.1875 C18.12260099 16.64899168 18.12260099 16.64899168 14.9375 15.25 C13.4834375 14.63125 13.4834375 14.63125 12 14 C12 13.01 12 12.02 12 11 C11.34 11 10.68 11 10 11 C9.4225 10.071875 8.845 9.14375 8.25 8.1875 C5.78228833 4.69157513 3.90285207 3.5966213 0 2 C0 1.34 0 0.68 0 0 Z " fill="#B7D185" transform="translate(443,99)"/>
<path d="M0 0 C1.5446868 3.0893736 1.00974578 4.71832623 0 8 C-5.51928251 14.30992353 -12.01034119 17.1939396 -20.2421875 17.88671875 C-20.82226562 17.92410156 -21.40234375 17.96148437 -22 18 C-21 15 -21 15 -19.1015625 13.96484375 C-18.28429687 13.62582031 -17.46703125 13.28679687 -16.625 12.9375 C-9.95705739 9.81551531 -5.21688664 5.10778825 0 0 Z " fill="#B8CF8B" transform="translate(407,258)"/>
<path d="M0 0 C0 0.66 0 1.32 0 2 C0.680625 1.79375 1.36125 1.5875 2.0625 1.375 C5.78833331 0.89936171 8.46992554 1.82330851 12 3 C12.495 5.475 12.495 5.475 13 8 C9.02798574 6.71511825 5.13169595 5.29905348 1.2409668 3.79174805 C-8.90672729 -0.12086305 -18.11550957 -2.22689601 -29 -3 C-29 -3.33 -29 -3.66 -29 -4 C-18.80866559 -7.28195515 -9.4306308 -4.6056569 0 0 Z " fill="#85BC50" transform="translate(410,280)"/>
<path d="M0 0 C3 1 3 1 4.6875 3.9375 C6 7 6 7 6 9 C6.66 9 7.32 9 8 9 C9.20571943 11.90946313 10.38628225 14.82849916 11.5625 17.75 C11.90474609 18.575 12.24699219 19.4 12.59960938 20.25 C12.91865234 21.04921875 13.23769531 21.8484375 13.56640625 22.671875 C13.86490479 23.4050293 14.16340332 24.13818359 14.47094727 24.89355469 C15.07674986 27.30558274 14.7935828 28.67215713 14 31 C13.67 29.02 13.34 27.04 13 25 C12.01 25 11.02 25 10 25 C10 24.34 10 23.68 10 23 C9.01 23 8.02 23 7 23 C6.67 18.71 6.34 14.42 6 10 C5.34 10 4.68 10 4 10 C4 9.01 4 8.02 4 7 C3.34 7 2.68 7 2 7 C2 6.34 2 5.68 2 5 C1.01 5 0.02 5 -1 5 C-0.67 3.35 -0.34 1.7 0 0 Z " fill="#A1C197" transform="translate(499,361)"/>
<path d="M0 0 C-6.3652245 5.05867842 -13.20575032 8.83492958 -20.4375 12.5 C-21.32598633 12.95745605 -22.21447266 13.41491211 -23.12988281 13.88623047 C-23.97260742 14.30533691 -24.81533203 14.72444336 -25.68359375 15.15625 C-26.44212646 15.53587891 -27.20065918 15.91550781 -27.98217773 16.30664062 C-30 17 -30 17 -33 16 C-27 10 -27 10 -25.15234375 9.90234375 C-23.1015625 9.93489583 -21.05078125 9.96744792 -19 10 C-19 8.68 -19 7.36 -19 6 C-16 5 -16 5 -13 6 C-13 5.34 -13 4.68 -13 4 C-12.01 4 -11.02 4 -10 4 C-9.67 3.01 -9.34 2.02 -9 1 C-2.63157895 -1.31578947 -2.63157895 -1.31578947 0 0 Z " fill="#8BAC81" transform="translate(450,558)"/>
<path d="M0 0 C-0.33 0.66 -0.66 1.32 -1 2 C1.31 2.33 3.62 2.66 6 3 C5.34 3.33 4.68 3.66 4 4 C4.495 5.485 4.495 5.485 5 7 C0.96421527 5.43776075 -2.97226323 3.68489803 -6.9140625 1.90234375 C-9.12437419 0.91053164 -9.12437419 0.91053164 -12 0 C-12 -0.66 -12 -1.32 -12 -2 C-22.56 -2.33 -33.12 -2.66 -44 -3 C-44 -3.33 -44 -3.66 -44 -4 C-11.19573389 -6.34609669 -11.19573389 -6.34609669 0 0 Z " fill="#92B458" transform="translate(395,181)"/>
<path d="M0 0 C9.01458523 3.79781137 15.83077498 13.77051586 21.5625 21.375 C22.07490234 22.05256348 22.58730469 22.73012695 23.11523438 23.42822266 C25.62137624 26.83074029 27.67459168 29.93750587 29 34 C27.35 33.67 25.7 33.34 24 33 C24 31.35 24 29.7 24 28 C22.68 28 21.36 28 20 28 C20 26.02 20 24.04 20 22 C18.35 22 16.7 22 15 22 C14.7525 20.7625 14.505 19.525 14.25 18.25 C12.19559178 11.83125192 7.30639971 7.88277714 2.51953125 3.40625 C1.68808594 2.6121875 0.85664063 1.818125 0 1 C0 0.67 0 0.34 0 0 Z " fill="#C2D894" transform="translate(267,430)"/>
<path d="M0 0 C2.97 0.33 5.94 0.66 9 1 C9 1.66 9 2.32 9 3 C9.66 3 10.32 3 11 3 C11.19335938 3.54269531 11.38671875 4.08539063 11.5859375 4.64453125 C11.84632813 5.35996094 12.10671875 6.07539063 12.375 6.8125 C12.63023437 7.52019531 12.88546875 8.22789062 13.1484375 8.95703125 C14.0265769 11.24773359 14.0265769 11.24773359 16 14 C15.67 14.66 15.34 15.32 15 16 C16.65 16.33 18.3 16.66 20 17 C19.34 19.31 18.68 21.62 18 24 C15.77156101 21.13675347 13.88415793 18.19845755 12.0625 15.0625 C8.63394851 9.30320907 4.81001418 4.67640267 0 0 Z " fill="#83A678" transform="translate(402,384)"/>
<path d="M0 0 C2.375 0.6875 2.375 0.6875 5 2 C5.66666667 3.66666667 6.33333333 5.33333333 7 7 C8.65984798 7.68346682 10.32836805 8.34588315 12 9 C16.23085078 12.23924513 19.9116565 15.64562749 23 20 C22.67 20.66 22.34 21.32 22 22 C21.29875 21.38125 20.5975 20.7625 19.875 20.125 C17.10806811 17.84642252 17.10806811 17.84642252 13.75 16.9375 C12.8425 16.628125 11.935 16.31875 11 16 C10.67 15.01 10.34 14.02 10 13 C7.99878825 10.63493157 7.03200339 10.0106678 4 9 C4.33 7.35 4.66 5.7 5 4 C3.35 4 1.7 4 0 4 C0 2.68 0 1.36 0 0 Z " fill="#9ABE5D" transform="translate(463,116)"/>
<path d="M0 0 C2.31 0 4.62 0 7 0 C7 0.66 7 1.32 7 2 C8.98 1.67 10.96 1.34 13 1 C13 1.99 13 2.98 13 4 C13.66 4.33 14.32 4.66 15 5 C15 5.66 15 6.32 15 7 C17.31 7.33 19.62 7.66 22 8 C22 8.99 22 9.98 22 11 C23.134375 11.28875 24.26875 11.5775 25.4375 11.875 C26.613125 12.24625 27.78875 12.6175 29 13 C29.33 13.66 29.66 14.32 30 15 C22.79875359 13.12178915 16.47276019 10.47550138 9.9375 6.9375 C9.08478516 6.49083984 8.23207031 6.04417969 7.35351562 5.58398438 C1.13438264 2.26876528 1.13438264 2.26876528 0 0 Z " fill="#A4C56C" transform="translate(233,563)"/>
<path d="M0 0 C2.55631059 4.58273433 2.84087053 9.10099193 3.375 14.25 C3.49488281 15.16652344 3.61476563 16.08304688 3.73828125 17.02734375 C4.33674692 22.77425386 3.8843841 26.25600649 0.96142578 31.24902344 C-0.35014891 33.63770136 -0.60007372 35.80132699 -0.75 38.5 C-0.80671875 39.3559375 -0.8634375 40.211875 -0.921875 41.09375 C-0.94765625 41.7228125 -0.9734375 42.351875 -1 43 C-1.66 42.34 -2.32 41.68 -3 41 C-5.475 43.475 -5.475 43.475 -8 46 C-6.11789202 41.2465831 -4.12056919 36.54484086 -2.12109375 31.83984375 C-0.3814777 27.43322051 0.12190272 23.89293329 0.09765625 19.140625 C0.09282227 17.46806641 0.09282227 17.46806641 0.08789062 15.76171875 C0.07951172 14.60285156 0.07113281 13.44398438 0.0625 12.25 C0.05798828 11.07566406 0.05347656 9.90132812 0.04882812 8.69140625 C0.03705094 5.79421928 0.02060326 2.89713546 0 0 Z " fill="#C2D699" transform="translate(416,212)"/>
<path d="M0 0 C3.08465905 4.62698857 3.84651612 9.81970285 5.125 15.1875 C5.40214844 16.29931641 5.67929687 17.41113281 5.96484375 18.55664062 C7.3991776 24.52361077 8.3446715 29.86334869 8 36 C7.01 36 6.02 36 5 36 C4.87882812 35.13117187 4.75765625 34.26234375 4.6328125 33.3671875 C4.46523438 32.21476563 4.29765625 31.06234375 4.125 29.875 C3.96257812 28.73804688 3.80015625 27.60109375 3.6328125 26.4296875 C3.09780743 23.02628697 3.09780743 23.02628697 1.9375 20 C0.8625424 16.56013569 0.80164615 13.71933872 0.875 10.125 C0.89304687 8.97257812 0.91109375 7.82015625 0.9296875 6.6328125 C0.95289063 5.76398438 0.97609375 4.89515625 1 4 C0.34 3.67 -0.32 3.34 -1 3 C-0.67 2.01 -0.34 1.02 0 0 Z " fill="#9CBC5B" transform="translate(308,492)"/>
<path d="M0 0 C1.98 0 3.96 0 6 0 C-0.61853547 8.18608335 -8.27103643 15.11743759 -17 21 C-17.66 20.67 -18.32 20.34 -19 20 C-18.34 18.68 -17.68 17.36 -17 16 C-16.01 16 -15.02 16 -14 16 C-14 15.34 -14 14.68 -14 14 C-12.68 13.67 -11.36 13.34 -10 13 C-9.67 11.68 -9.34 10.36 -9 9 C-7.02 8.67 -5.04 8.34 -3 8 C-3.33 6.68 -3.66 5.36 -4 4 C-3.01 3.67 -2.02 3.34 -1 3 C-0.67 2.01 -0.34 1.02 0 0 Z " fill="#88AC7B" transform="translate(469,536)"/>
<path d="M0 0 C3.96 0 7.92 0 12 0 C12 0.33 12 0.66 12 1 C7.545 1.495 7.545 1.495 3 2 C2.07899402 16.99084202 1.51970229 31.99046304 1 47 C0.67 47 0.34 47 0 47 C0 31.49 0 15.98 0 0 Z " fill="#99B956" transform="translate(157,389)"/>
<path d="M0 0 C1.98 0 3.96 0 6 0 C3.85718562 2.14281438 2.72588824 2.57648574 -0.10546875 3.47265625 C-0.92466797 3.73240234 -1.74386719 3.99214844 -2.58789062 4.25976562 C-3.44576172 4.52466797 -4.30363281 4.78957031 -5.1875 5.0625 C-6.02603516 5.33126953 -6.86457031 5.60003906 -7.72851562 5.87695312 C-12.49105461 7.36780257 -17.03813663 8.45614217 -22 9 C-22.33 7.68 -22.66 6.36 -23 5 C-15.21726112 2.95062675 -8.06510168 1.50844753 0 2 C0 1.34 0 0.68 0 0 Z " fill="#7BA26F" transform="translate(411,575)"/>
<path d="M0 0 C0.45986864 10.74730045 -0.86594261 20.50755115 -3 31 C-3.33 31 -3.66 31 -4 31 C-4.02945031 27.68751922 -4.04694801 24.37507289 -4.0625 21.0625 C-4.07087891 20.13630859 -4.07925781 19.21011719 -4.08789062 18.25585938 C-4.10835769 12.42274552 -3.92526627 6.76691118 -3 1 C-1 0 -1 0 0 0 Z " fill="#629055" transform="translate(517,431)"/>
<path d="M0 0 C1.81464786 4.81623519 -0.37351936 8.32816315 -2.3203125 12.8046875 C-4.91323212 17.73726483 -8.30400017 21.85461061 -12 26 C-12 23 -12 23 -10.0625 20.375 C-7.51295277 16.20301363 -7.21330603 12.79938564 -7 8 C-5.68 7.67 -4.36 7.34 -3 7 C-2.87625 6.401875 -2.7525 5.80375 -2.625 5.1875 C-2 3 -2 3 0 0 Z " fill="#81AD78" transform="translate(498,498)"/>
<path d="M0 0 C1.98 0 3.96 0 6 0 C7 3 7 3 7 6 C7.99 6 8.98 6 10 6 C10.07347656 6.90492188 10.07347656 6.90492188 10.1484375 7.828125 C10.22320312 8.62734375 10.29796875 9.4265625 10.375 10.25 C10.44460938 11.03890625 10.51421875 11.8278125 10.5859375 12.640625 C11.01507113 15.085877 11.78600638 16.84836903 13 19 C12.34 19.99 11.68 20.98 11 22 C11 20.68 11 19.36 11 18 C10.34 18 9.68 18 9 18 C8.76925781 17.45472656 8.53851563 16.90945312 8.30078125 16.34765625 C5.85628489 10.6953623 3.0762635 5.33303057 0 0 Z " fill="#A3BF68" transform="translate(406,194)"/>
<path d="M0 0 C0.66 0 1.32 0 2 0 C0.63742129 5.39412603 -1.33082343 10.06297334 -3.875 15 C-4.21402344 15.67289062 -4.55304688 16.34578125 -4.90234375 17.0390625 C-7.13682408 21.44005418 -9.52143494 25.73197765 -12 30 C-13.21744727 26.34765818 -12.64202228 25.37046678 -11 22 C-10.34 21.34 -9.68 20.68 -9 20 C-8.3574765 17.93125966 -8.3574765 17.93125966 -8 16 C-7.34 16 -6.68 16 -6 16 C-5.814375 14.9171875 -5.814375 14.9171875 -5.625 13.8125 C-5.0095069 11.04278106 -4.11555626 8.6029646 -3 6 C-2.34 6 -1.68 6 -1 6 C-0.67 4.02 -0.34 2.04 0 0 Z " fill="#A1BE69" transform="translate(501,282)"/>
<path d="M0 0 C11.48214076 0.80625201 20.67062058 2.79438565 31 8 C27.18035788 9.15233929 25.68009886 8.48956382 22 7 C20.00038436 6.96079185 17.99950636 6.95556653 16 7 C15.34 6.67 14.68 6.34 14 6 C14 5.01 14 4.02 14 3 C12.7934375 3.2784375 12.7934375 3.2784375 11.5625 3.5625 C10.716875 3.706875 9.87125 3.85125 9 4 C8.67 3.67 8.34 3.34 8 3 C6.65252916 2.76924918 5.29622435 2.58846937 3.9375 2.4375 C2.638125 2.293125 1.33875 2.14875 0 2 C0 1.34 0 0.68 0 0 Z " fill="#BDD78D" transform="translate(199,396)"/>
<path d="M0 0 C0 0.66 0 1.32 0 2 C-1.98 2.66 -3.96 3.32 -6 4 C-6.1546875 5.1446875 -6.1546875 5.1446875 -6.3125 6.3125 C-7.06124739 9.23942162 -7.51692929 10.31505916 -10 12 C-12.6875 12.1875 -12.6875 12.1875 -15 12 C-15 11.34 -15 10.68 -15 10 C-16.65 10 -18.3 10 -20 10 C-17.96804269 8.91145144 -16.20150212 8.04274287 -13.9375 7.5625 C-11.94067288 7.15151233 -11.94067288 7.15151233 -10.6875 5.6875 C-7.94405402 2.94405402 -3.94845206 0 0 0 Z " fill="#88AE7D" transform="translate(399,472)"/>
<path d="M0 0 C9.7149264 2.09754093 18.77466062 5.38244941 28 9 C28 9.33 28 9.66 28 10 C26.02 10 24.04 10 22 10 C22 9.34 22 8.68 22 8 C20.86820312 7.90203125 19.73640625 7.8040625 18.5703125 7.703125 C17.08844222 7.55306219 15.60667624 7.40196679 14.125 7.25 C13.37863281 7.188125 12.63226563 7.12625 11.86328125 7.0625 C9.6953125 6.828125 9.6953125 6.828125 6 6 C4.625 3.96875 4.625 3.96875 4 2 C1.94999129 1.19471111 1.94999129 1.19471111 0 1 C0 0.67 0 0.34 0 0 Z " fill="#A3BF6B" transform="translate(400,82)"/>
<path d="M0 0 C0.33 0 0.66 0 1 0 C1.02505615 1.30146973 1.0501123 2.60293945 1.07592773 3.94384766 C1.1703047 8.78573971 1.27045085 13.62749842 1.37231445 18.46923828 C1.41554894 20.56230544 1.45723185 22.65540526 1.49731445 24.74853516 C1.55529601 27.76214426 1.61890942 30.77559071 1.68359375 33.7890625 C1.70030624 34.72054108 1.71701874 35.65201965 1.73423767 36.61172485 C1.83751847 41.17094252 2.08774645 45.51340071 3 50 C2.01 50 1.02 50 0 50 C0 33.5 0 17 0 0 Z " fill="#9EBA65" transform="translate(156,128)"/>
<path d="M0 0 C0.83265381 0.00523682 1.66530762 0.01047363 2.52319336 0.01586914 C3.42231445 0.0190918 4.32143555 0.02231445 5.24780273 0.02563477 C6.66609375 0.03820312 6.66609375 0.03820312 8.11303711 0.05102539 C9.06243164 0.05553711 10.01182617 0.06004883 10.98999023 0.06469727 C13.34356776 0.07652429 15.69702188 0.09300514 18.05053711 0.11352539 C18.05053711 0.44352539 18.05053711 0.77352539 18.05053711 1.11352539 C8.10348351 3.61705349 -1.77713182 3.30326835 -11.94946289 3.11352539 C-11.94946289 2.78352539 -11.94946289 2.45352539 -11.94946289 2.11352539 C-10.99233398 2.02264648 -10.99233398 2.02264648 -10.01586914 1.92993164 C-8.77643555 1.80424805 -8.77643555 1.80424805 -7.51196289 1.67602539 C-6.68825195 1.59481445 -5.86454102 1.51360352 -5.01586914 1.42993164 C-2.67605885 1.07166201 -2.33382268 0.13590827 0 0 Z " fill="#80A477" transform="translate(369.949462890625,583.886474609375)"/>
<path d="M0 0 C0.99 0.33 1.98 0.66 3 1 C2.21625 2.051875 1.4325 3.10375 0.625 4.1875 C-3.08292411 9.40882727 -3.08292411 9.40882727 -3.8125 15.625 C-2.94459329 18.16195808 -2.04606333 19.30977377 0 21 C-0.33 21.66 -0.66 22.32 -1 23 C-4.75176965 19.52009772 -6.9164654 17.31566998 -7.25 12.0625 C-6.23431531 7.21189368 -3.18777936 3.66545884 0 0 Z " fill="#B5CE8F" transform="translate(485,312)"/>
<path d="M0 0 C2.35448165 2.55068845 2.98327924 3.71017358 3.1875 7.25 C3.125625 8.1575 3.06375 9.065 3 10 C4.32 10.33 5.64 10.66 7 11 C7.625 12.8125 7.625 12.8125 8 15 C7.01 16.485 7.01 16.485 6 18 C4.66141476 15.71125827 3.32898986 13.41930344 2 11.125 C1.6184375 10.47402344 1.236875 9.82304687 0.84375 9.15234375 C-2 4.2265625 -2 4.2265625 -2 2 C-1.34 2 -0.68 2 0 2 C0 1.34 0 0.68 0 0 Z " fill="#B1CD7C" transform="translate(174,494)"/>
<path d="M0 0 C3.71247302 5.56870953 3.38600018 12.10851537 3.75 18.625 C3.81832031 19.57890625 3.88664062 20.5328125 3.95703125 21.515625 C4.00730469 22.43085938 4.05757813 23.34609375 4.109375 24.2890625 C4.16061523 25.12131348 4.21185547 25.95356445 4.26464844 26.81103516 C3.93836728 29.50977763 3.07580715 30.32401313 1 32 C0.11742851 29.45034903 0.00973643 27.94231778 0.46484375 25.24609375 C1.8378187 16.91804859 1.12850339 8.32271253 0 0 Z " fill="#91B788" transform="translate(421,411)"/>
<path d="M0 0 C5.83712526 3.00585384 10.22920254 6.70342031 14.9375 11.25 C15.62134766 11.8996875 16.30519531 12.549375 17.00976562 13.21875 C18.67916364 14.80642923 20.34227911 16.40014748 22 18 C21.67 18.66 21.34 19.32 21 20 C20.401875 19.505 19.80375 19.01 19.1875 18.5 C17.02970006 16.71723582 17.02970006 16.71723582 14 17 C13.97035156 16.28199219 13.94070313 15.56398438 13.91015625 14.82421875 C12.61267648 10.79813345 9.77240464 9.13533664 6.4375 6.8125 C4.24381828 5.25280378 2.11844865 3.66470583 0 2 C0 1.34 0 0.68 0 0 Z " fill="#D4E7B1" transform="translate(455,107)"/>
<path d="M0 0 C0.33 1.32 0.66 2.64 1 4 C1.99 4 2.98 4 4 4 C4.33 4.99 4.66 5.98 5 7 C6.134375 7.433125 7.26875 7.86625 8.4375 8.3125 C12 10 12 10 13.4375 13.1875 C13.623125 14.115625 13.80875 15.04375 14 16 C9.92389536 14.34192354 6.98121136 11.45848322 3.8125 8.5 C3.26658203 8.00113281 2.72066406 7.50226562 2.15820312 6.98828125 C-1.86575641 3.26848718 -1.86575641 3.26848718 -3 1 C-2.01 0.67 -1.02 0.34 0 0 Z " fill="#A5C372" transform="translate(206,538)"/>
<path d="M0 0 C0.33 0 0.66 0 1 0 C1.33328851 8.56674915 1.11584616 15.95073076 -2 24 C-3.0625 22.125 -3.0625 22.125 -4 20 C-3.67 19.34 -3.34 18.68 -3 18 C-2.82018043 16.64992606 -2.67976633 15.29443896 -2.5625 13.9375 C-2.08462603 9.18959092 -1.12780943 4.63168337 0 0 Z " fill="#99BC5C" transform="translate(506,258)"/>
<path d="M0 0 C2.97 0.495 2.97 0.495 6 1 C6 3.31 6 5.62 6 8 C7.32 8.33 8.64 8.66 10 9 C10 10.65 10 12.3 10 14 C6.07511907 10.29939798 2.97784457 6.5093075 0 2 C0 1.34 0 0.68 0 0 Z " fill="#ACC772" transform="translate(181,512)"/>
<path d="M0 0 C0.66 0 1.32 0 2 0 C2 0.66 2 1.32 2 2 C3.65 2 5.3 2 7 2 C7 2.66 7 3.32 7 4 C7.66 4 8.32 4 9 4 C9.33 5.98 9.66 7.96 10 10 C11.32 10.33 12.64 10.66 14 11 C13.34 11 12.68 11 12 11 C11.67 11.66 11.34 12.32 11 13 C9.34810857 11.40207236 7.7036661 9.79644124 6.0625 8.1875 C5.14597656 7.29417969 4.22945312 6.40085937 3.28515625 5.48046875 C1 3 1 3 0 0 Z " fill="#A1BE6A" transform="translate(191,526)"/>
<path d="M0 0 C7.01476746 1.49250372 12.91337334 4.91337334 18 10 C15.03 9.67 12.06 9.34 9 9 C9 8.34 9 7.68 9 7 C7.68 6.34 6.36 5.68 5 5 C5 4.34 5 3.68 5 3 C3.68 3 2.36 3 1 3 C0.67 2.01 0.34 1.02 0 0 Z " fill="#9EBB65" transform="translate(223,403)"/>
<path d="M0 0 C0 0.66 0 1.32 0 2 C0.9075 2.226875 1.815 2.45375 2.75 2.6875 C6.44888324 4.18127977 7.77905658 5.75400577 10 9 C9.01 9.33 8.02 9.66 7 10 C5.5 8.625 5.5 8.625 4 7 C4 6.34 4 5.68 4 5 C2.35 5 0.7 5 -1 5 C-1 4.34 -1 3.68 -1 3 C-1.639375 2.87625 -2.27875 2.7525 -2.9375 2.625 C-3.618125 2.41875 -4.29875 2.2125 -5 2 C-5.33 1.34 -5.66 0.68 -6 0 C-3.50907189 -1.24546405 -2.58919267 -0.7767578 0 0 Z " fill="#A1C063" transform="translate(443,99)"/>
<path d="M0 0 C0.33 0 0.66 0 1 0 C3.14982548 9.0599788 3.20871753 17.75845174 3 27 C2.67 27 2.34 27 2 27 C1.95101562 26.07316406 1.90203125 25.14632813 1.8515625 24.19140625 C1.77679687 22.99386719 1.70203125 21.79632813 1.625 20.5625 C1.55539062 19.36753906 1.48578125 18.17257812 1.4140625 16.94140625 C1.27742187 15.97074219 1.14078125 15.00007813 1 14 C0.34 13.67 -0.32 13.34 -1 13 C-1.02708567 11.39592672 -1.04643483 9.7917215 -1.0625 8.1875 C-1.07410156 7.29417969 -1.08570313 6.40085937 -1.09765625 5.48046875 C-1 3 -1 3 0 0 Z " fill="#79A16E" transform="translate(514,397)"/>
<path d="M0 0 C1.67542976 0.28604898 3.34385343 0.61781233 5 1 C5 1.66 5 2.32 5 3 C7.64 3.66 10.28 4.32 13 5 C13 5.33 13 5.66 13 6 C4.75569133 5.52087184 -3.00044527 4.02214499 -11 2 C-7.58028525 1.05049135 -4.54667612 1 -1 1 C-0.67 0.67 -0.34 0.34 0 0 Z " fill="#B7CF86" transform="translate(290,582)"/>
<path d="M0 0 C0.99 0 1.98 0 3 0 C3 0.66 3 1.32 3 2 C5.31 2.33 7.62 2.66 10 3 C10 3.99 10 4.98 10 6 C11.134375 6.28875 12.26875 6.5775 13.4375 6.875 C14.613125 7.24625 15.78875 7.6175 17 8 C17.33 8.66 17.66 9.32 18 10 C12.3856009 8.43551329 7.13189662 6.83604813 2 4 C2 3.01 2 2.02 2 1 C1.34 0.67 0.68 0.34 0 0 Z " fill="#AAC874" transform="translate(245,568)"/>
<path d="M0 0 C4.72373854 1.62378512 8.94181834 4.10993018 13 7 C13 7.33 13 7.66 13 8 C10.03 8 7.06 8 4 8 C3.67 7.01 3.34 6.02 3 5 C2.01 4.34 1.02 3.68 0 3 C0 2.01 0 1.02 0 0 Z " fill="#58973D" transform="translate(423,288)"/>
<path d="M0 0 C1.32 0 2.64 0 4 0 C4 0.66 4 1.32 4 2 C4.66 2 5.32 2 6 2 C6.33 2.99 6.66 3.98 7 5 C7.99 5.33 8.98 5.66 10 6 C10.66 5.67 11.32 5.34 12 5 C11.67 7.31 11.34 9.62 11 12 C10.67 11.34 10.34 10.68 10 10 C9.34 10 8.68 10 8 10 C8 9.34 8 8.68 8 8 C7.01 7.67 6.02 7.34 5 7 C5 6.34 5 5.68 5 5 C4.01 4.67 3.02 4.34 2 4 C0.8125 1.9375 0.8125 1.9375 0 0 Z " fill="#85BE50" transform="translate(467,316)"/>
<path d="M0 0 C0.99 0.495 0.99 0.495 2 1 C3.64563272 6.64904331 4.55494773 12.24669342 3 18 C2.34 18 1.68 18 1 18 C-0.0712828 11.97403427 -0.09945415 6.11090483 0 0 Z " fill="#9ABB5F" transform="translate(505,176)"/>
<path d="M0 0 C0.66 0 1.32 0 2 0 C0.12849037 7.15129696 -2.49786342 13.49405457 -6 20 C-6.66 19.01 -7.32 18.02 -8 17 C-7.67 16.34 -7.34 15.68 -7 15 C-6.34 15 -5.68 15 -5 15 C-4.7834375 13.88625 -4.7834375 13.88625 -4.5625 12.75 C-4.09812508 10.47972261 -3.58136431 8.24240521 -3 6 C-2.34 6 -1.68 6 -1 6 C-0.67 4.02 -0.34 2.04 0 0 Z " fill="#69965B" transform="translate(506,480)"/>
<path d="M0 0 C6.37675351 6.20440882 6.37675351 6.20440882 8 9 C7.75203633 11.16968209 7.55766393 12.44233607 6 14 C5.01 14 4.02 14 3 14 C2.29925156 10.846632 2 8.27275026 2 5 C1.38655243 3.31301918 0.72904086 1.64034193 0 0 Z " fill="#9EBF94" transform="translate(485,335)"/>
<path d="M0 0 C4.8245905 4.25699162 8.05863995 9.28911194 11 15 C11 15.66 11 16.32 11 17 C10.34 17 9.68 17 9 17 C9 16.01 9 15.02 9 14 C8.34 14 7.68 14 7 14 C5.2734375 11.953125 5.2734375 11.953125 3.375 9.25 C2.74335938 8.36828125 2.11171875 7.4865625 1.4609375 6.578125 C0 4 0 4 0 0 Z " fill="#CCE1A5" transform="translate(486,138)"/>
<path d="M0 0 C1.2375 0.185625 2.475 0.37125 3.75 0.5625 C6.76279577 0.94711223 9.10010827 1.0874594 12 0 C11.67 0.99 11.34 1.98 11 3 C13.31 3.33 15.62 3.66 18 4 C17.01 4.495 17.01 4.495 16 5 C16.33 5.99 16.66 6.98 17 8 C13.75687438 6.74459653 10.5609431 5.39287561 7.375 4 C6.61960937 3.67 5.86421875 3.34 5.0859375 3 C3 2 3 2 0 0 Z " fill="#BBD38E" transform="translate(383,180)"/>
<path d="M0 0 C2.9375 0.8125 2.9375 0.8125 6 2 C6.33 2.99 6.66 3.98 7 5 C8.65 5.33 10.3 5.66 12 6 C12.33 7.32 12.66 8.64 13 10 C7.32146365 8.58036591 3.46825784 5.60636039 -1 2 C-0.67 1.34 -0.34 0.68 0 0 Z " fill="#82BC50" transform="translate(431,290)"/>
<path d="M0 0 C3.95431169 4.39367965 6.86631108 9.49527743 9 15 C8.67 15.66 8.34 16.32 8 17 C7.67 15.68 7.34 14.36 7 13 C6.34 13 5.68 13 5 13 C1.81710258 10.61282694 0.99743233 7.75955262 0 4 C0 2.68 0 1.36 0 0 Z " fill="#C1D594" transform="translate(296,464)"/>
<path d="M0 0 C2.58361518 -0.05407567 5.16609255 -0.093707 7.75 -0.125 C8.84441406 -0.15013672 8.84441406 -0.15013672 9.9609375 -0.17578125 C13.8044624 -0.21072239 16.74606772 -0.17499684 20 2 C13.91496995 3.01417168 8.08050141 3.29973543 2 2 C1.34 1.34 0.68 0.68 0 0 Z " fill="#9EBE61" transform="translate(171,390)"/>
<path d="M0 0 C5.54436129 1.28708387 10.70201036 2.91864693 16 5 C15.01 5.66 14.02 6.32 13 7 C9.3125 6.125 9.3125 6.125 6 5 C6 4.34 6 3.68 6 3 C4.02 3.33 2.04 3.66 0 4 C0 2.68 0 1.36 0 0 Z " fill="#609A3F" transform="translate(399,279)"/>
<path d="M0 0 C1.4540625 0.0309375 1.4540625 0.0309375 2.9375 0.0625 C1.9375 3.0625 1.9375 3.0625 0.1953125 4.265625 C-0.50851562 4.61109375 -1.21234375 4.9565625 -1.9375 5.3125 C-2.63617188 5.66828125 -3.33484375 6.0240625 -4.0546875 6.390625 C-6.0625 7.0625 -6.0625 7.0625 -9.0625 6.0625 C-3.0625 0.0625 -3.0625 0.0625 0 0 Z " fill="#83A678" transform="translate(426.0625,567.9375)"/>
<path d="M0 0 C0.99 0.33 1.98 0.66 3 1 C3 1.99 3 2.98 3 4 C3.99 4.33 4.98 4.66 6 5 C6.33 4.34 6.66 3.68 7 3 C7.99 5.31 8.98 7.62 10 10 C4.91061189 8.40956621 1.12543357 5.2553049 -3 2 C-2.01 1.34 -1.02 0.68 0 0 Z " fill="#ABC673" transform="translate(223,553)"/>
<path d="M0 0 C4.95 0.33 9.9 0.66 15 1 C14.67 1.99 14.34 2.98 14 4 C14.66 4.33 15.32 4.66 16 5 C10.34979382 4.39891424 5.33835539 2.92471317 0 1 C0 0.67 0 0.34 0 0 Z " fill="#AFC77A" transform="translate(263,578)"/>
<path d="M0 0 C2.97 0.33 5.94 0.66 9 1 C9 1.66 9 2.32 9 3 C9.66 3 10.32 3 11 3 C11.33 4.65 11.66 6.3 12 8 C11.01 8 10.02 8 9 8 C9 7.01 9 6.02 9 5 C7.329375 4.5978125 7.329375 4.5978125 5.625 4.1875 C2 3 2 3 0 0 Z " fill="#6E9C62" transform="translate(402,384)"/>
<path d="M0 0 C1.98 0 3.96 0 6 0 C7 3 7 3 6 6 C6.88319294 9.15020361 6.88319294 9.15020361 8 12 C5.45868642 9.69716746 3.92889705 7.32686207 2.3125 4.3125 C1.87550781 3.50425781 1.43851562 2.69601563 0.98828125 1.86328125 C0.66214844 1.24839844 0.33601563 0.63351563 0 0 Z " fill="#B2C97B" transform="translate(406,194)"/>
<path d="M0 0 C2.1379796 3.20696941 2.569638 5.17922665 3.1875 8.9375 C3.36667969 9.97777344 3.54585938 11.01804688 3.73046875 12.08984375 C3.97885418 14.77168641 3.85644872 16.47924668 3 19 C0.15678642 16.15678642 0.07443218 9.4097004 -0.12890625 5.55859375 C-0.12559076 3.70523397 -0.06859603 1.85209289 0 0 Z " fill="#C3D79C" transform="translate(507,177)"/>
<path d="M0 0 C0.66 0 1.32 0 2 0 C2.26554688 0.73605469 2.53109375 1.47210938 2.8046875 2.23046875 C3.15789062 3.20628906 3.51109375 4.18210937 3.875 5.1875 C4.22304687 6.15042969 4.57109375 7.11335938 4.9296875 8.10546875 C5.62488025 9.9855338 6.37774722 11.84561061 7.1953125 13.67578125 C8 16 8 16 7 19 C5.82905995 16.2100561 4.66309073 13.41821403 3.5 10.625 C2.99919922 9.43390625 2.99919922 9.43390625 2.48828125 8.21875 C2.17246094 7.45820313 1.85664063 6.69765625 1.53125 5.9140625 C1.23798828 5.2123291 0.94472656 4.5105957 0.64257812 3.78759766 C0 2 0 2 0 0 Z " fill="#BCD290" transform="translate(164,477)"/>
<path d="M0 0 C2.97 0 5.94 0 9 0 C9.33 1.32 9.66 2.64 10 4 C2.25 3.125 2.25 3.125 0 2 C0 1.34 0 0.68 0 0 Z " fill="#95BA55" transform="translate(277,580)"/>
<path d="M0 0 C5.78461538 4.18461538 5.78461538 4.18461538 6.875 8.3125 C6.936875 9.6428125 6.936875 9.6428125 7 11 C6.34 11 5.68 11 5 11 C4.731875 10.38125 4.46375 9.7625 4.1875 9.125 C3.04443152 6.7004767 3.04443152 6.7004767 0 5 C-0.1875 2.375 -0.1875 2.375 0 0 Z " fill="#9CBA5E" transform="translate(275,439)"/>
<path d="M0 0 C0.66 0 1.32 0 2 0 C0.70022952 4.8991349 -0.92373687 9.37559575 -3 14 C-3.99 14 -4.98 14 -6 14 C-4.125 8.25 -4.125 8.25 -3 6 C-2.34 6 -1.68 6 -1 6 C-0.67 4.02 -0.34 2.04 0 0 Z " fill="#98B761" transform="translate(501,282)"/>
<path d="M0 0 C0.66 0 1.32 0 2 0 C2.1875 2.375 2.1875 2.375 2 5 C-1 7 -1 7 -4 7 C-4 6.34 -4 5.68 -4 5 C-4.66 4.67 -5.32 4.34 -6 4 C-4.02 3.34 -2.04 2.68 0 2 C0 1.34 0 0.68 0 0 Z " fill="#65975B" transform="translate(399,472)"/>
<path d="M0 0 C1.32 0 2.64 0 4 0 C4.22174933 1.45635371 4.42698698 2.91522956 4.625 4.375 C4.74101562 5.18710937 4.85703125 5.99921875 4.9765625 6.8359375 C4.98429687 7.55007813 4.99203125 8.26421875 5 9 C4.34 9.66 3.68 10.32 3 11 C2.67 8.36 2.34 5.72 2 3 C1.34 3 0.68 3 0 3 C0 2.01 0 1.02 0 0 Z " fill="#64965D" transform="translate(420,408)"/>
<path d="M0 0 C-4.455 3.465 -4.455 3.465 -9 7 C-9.66 6.67 -10.32 6.34 -11 6 C-10.34 4.68 -9.68 3.36 -9 2 C-8.01 2 -7.02 2 -6 2 C-6 1.34 -6 0.68 -6 0 C-2.25 -1.125 -2.25 -1.125 0 0 Z " fill="#93B488" transform="translate(461,550)"/>
<path d="M0 0 C3.375 0.25 3.375 0.25 7 1 C8.25 2.875 8.25 2.875 9 5 C10.5412312 6.70921589 10.5412312 6.70921589 12 8 C7.44328408 6.48109469 3.68276708 4.04597738 0 1 C0 0.67 0 0.34 0 0 Z " fill="#81B34B" transform="translate(445,300)"/>
<path d="M0 0 C0.33 0.66 0.66 1.32 1 2 C0.34 1.67 -0.32 1.34 -1 1 C-0.67 0.67 -0.34 0.34 0 0 Z M-3 2 C-2.34 2 -1.68 2 -1 2 C-1.50298788 6.40114397 -3.08772731 8.71195019 -6 12 C-6.33 11.34 -6.66 10.68 -7 10 C-5.98446183 6.9533855 -4.79237442 4.68856164 -3 2 Z " fill="#9AC256" transform="translate(494,296)"/>
<path d="M0 0 C0 0.66 0 1.32 0 2 C2.97 2.495 2.97 2.495 6 3 C2.22044143 4.25985286 -0.84423452 3.64024579 -4.6875 3.0625 C-5.38939453 2.96259766 -6.09128906 2.86269531 -6.81445312 2.75976562 C-8.54386527 2.51270675 -10.2720627 2.25717148 -12 2 C-12 1.67 -12 1.34 -12 1 C-10.56496445 0.63597631 -9.12683494 0.28413409 -7.6875 -0.0625 C-6.88699219 -0.25972656 -6.08648437 -0.45695312 -5.26171875 -0.66015625 C-3 -1 -3 -1 0 0 Z " fill="#78AA5A" transform="translate(393,275)"/>
<path d="M0 0 C0.33 0.99 0.66 1.98 1 3 C1.99 3 2.98 3 4 3 C4.66 4.98 5.32 6.96 6 9 C3.5625 8.625 3.5625 8.625 1 8 C-0.35439668 5.29120665 -0.06501451 2.99066732 0 0 Z " fill="#AECB7A" transform="translate(494,152)"/>
<path d="M0 0 C3.48749314 2.78999451 6.50157221 5.25235831 9 9 C8.67 9.66 8.34 10.32 8 11 C3.48709197 7.66437233 1.31793186 5.66710699 0 0 Z " fill="#C9E09F" transform="translate(477,127)"/>
<path d="M0 0 C2.60018816 3.90028225 2.15085514 7.47434569 2 12 C1.01 12 0.02 12 -1 12 C-1.02712066 10.56260487 -1.04645067 9.12506137 -1.0625 7.6875 C-1.07410156 6.88699219 -1.08570313 6.08648438 -1.09765625 5.26171875 C-1 3 -1 3 0 0 Z " fill="#A1BF64" transform="translate(314,516)"/>
<path d="M0 0 C0 3.96130371 -1.34877125 4.82914401 -4 7.6875 C-4.7425 8.49574219 -5.485 9.30398438 -6.25 10.13671875 C-6.8275 10.75160156 -7.405 11.36648438 -8 12 C-8 9 -8 9 -6 7 C-5.896875 6.360625 -5.79375 5.72125 -5.6875 5.0625 C-4.6836489 2.05094671 -2.73298502 1.40153078 0 0 Z " fill="#B4CEAB" transform="translate(484,524)"/>
<path d="M0 0 C0.66 0 1.32 0 2 0 C3.20568053 4.67201205 3.09382426 9.21496292 3 14 C2.67 14 2.34 14 2 14 C0.66416101 9.15758367 -0.25328119 5.06562383 0 0 Z " fill="#A1BF65" transform="translate(162,463)"/>
<path d="M0 0 C2.02350324 3.03525486 2.32124018 4.19426202 2.625 7.6875 C2.69976563 8.49574219 2.77453125 9.30398438 2.8515625 10.13671875 C2.90054688 10.75160156 2.94953125 11.36648438 3 12 C2.01 11.67 1.02 11.34 0 11 C0 7.37 0 3.74 0 0 Z " fill="#5E9451" transform="translate(513,413)"/>
<path d="M0 0 C0.33 0.99 0.66 1.98 1 3 C-5.75 2.25 -5.75 2.25 -8 0 C-5.13822943 -1.43088528 -3.06624227 -0.59991697 0 0 Z " fill="#96BA53" transform="translate(223,403)"/>
<path d="M0 0 C3.39417765 3.12621626 5.6062718 5.56541027 7 10 C5.35 9.67 3.7 9.34 2 9 C1.34 6.03 0.68 3.06 0 0 Z " fill="#C4DA98" transform="translate(289,454)"/>
<path d="M0 0 C5.21979128 -0.1799928 9.07262981 0.02905192 14 2 C11 4 11 4 8.30078125 3.5390625 C7.31464844 3.23742187 6.32851563 2.93578125 5.3125 2.625 C4.31863281 2.32851562 3.32476562 2.03203125 2.30078125 1.7265625 C1.54152344 1.48679688 0.78226562 1.24703125 0 1 C0 0.67 0 0.34 0 0 Z " fill="#9BB966" transform="translate(379,178)"/>
<path d="M0 0 C-3.56280976 3.42029737 -6.22197367 3.0853219 -11 3 C-13.35369807 3.88064927 -13.35369807 3.88064927 -15 5 C-13.31671286 2.10100549 -12.48681732 1.12981795 -9.1875 0.25 C-6.10671722 0.00836998 -3.08873988 -0.07354143 0 0 Z " fill="#558449" transform="translate(375,483)"/>
<path d="M0 0 C1.98 1.65 3.96 3.3 6 5 C4.68 5.99 3.36 6.98 2 8 C2 6.68 2 5.36 2 4 C1.01 4 0.02 4 -1 4 C-0.67 2.68 -0.34 1.36 0 0 Z " fill="#699A5C" transform="translate(479,330)"/>
<path d="M0 0 C3.63 1.65 7.26 3.3 11 5 C7.17211056 6.27596315 5.63343017 5.62344752 2 4 C1.34 2.68 0.68 1.36 0 0 Z " fill="#A4C168" transform="translate(428,92)"/>
<path d="M0 0 C0.99 0.33 1.98 0.66 3 1 C2.25 2.9375 2.25 2.9375 1 5 C-1.125 5.75 -1.125 5.75 -3 6 C-3 5.01 -3 4.02 -3 3 C-2.01 3 -1.02 3 0 3 C0 2.01 0 1.02 0 0 Z " fill="#629257" transform="translate(482,521)"/>
<path d="M0 0 C0 3.13751221 -0.35179805 4.39757586 -2 7 C-2.99 7.33 -3.98 7.66 -5 8 C-5.66 7.34 -6.32 6.68 -7 6 C-4.69 4.02 -2.38 2.04 0 0 Z " fill="#669259" transform="translate(408,465)"/>
<path d="M0 0 C0.66 0 1.32 0 2 0 C2.268125 0.61875 2.53625 1.2375 2.8125 1.875 C3.95556848 4.2995233 3.95556848 4.2995233 7 6 C7 6.66 7 7.32 7 8 C5.68 8 4.36 8 3 8 C3 7.34 3 6.68 3 6 C2.34 6 1.68 6 1 6 C0.67 4.02 0.34 2.04 0 0 Z " fill="#9BBE5E" transform="translate(289,458)"/>
<path d="M0 0 C0.33 0 0.66 0 1 0 C0.43393721 4.69023454 -0.18537505 9.34500026 -1 14 C-1.33 14 -1.66 14 -2 14 C-2.05437607 12.41705218 -2.09296271 10.83355744 -2.125 9.25 C-2.14820313 8.36828125 -2.17140625 7.4865625 -2.1953125 6.578125 C-1.99139502 3.8864142 -1.36551721 2.30095026 0 0 Z " fill="#689561" transform="translate(515,448)"/>
<path d="M0 0 C0.66 0 1.32 0 2 0 C2.33 3.3 2.66 6.6 3 10 C2.01 10 1.02 10 0 10 C0 6.7 0 3.4 0 0 Z " fill="#629A52" transform="translate(503,371)"/>
<path d="M0 0 C0.99 0.33 1.98 0.66 3 1 C3.33 2.98 3.66 4.96 4 7 C3.34 7 2.68 7 2 7 C2 6.34 2 5.68 2 5 C1.01 5 0.02 5 -1 5 C-0.67 3.35 -0.34 1.7 0 0 Z " fill="#6C965F" transform="translate(499,361)"/>
<path d="M0 0 C3.37503669 1.1858237 5.64722731 2.27573689 8 5 C5.69 4.67 3.38 4.34 1 4 C0.67 2.68 0.34 1.36 0 0 Z " fill="#66A03F" transform="translate(423,288)"/>
<path d="M0 0 C0.33 1.32 0.66 2.64 1 4 C-0.65 4.33 -2.3 4.66 -4 5 C-3 2 -3 2 0 0 Z M-5 5 C-4.67 5.66 -4.34 6.32 -4 7 C-4.66 6.67 -5.32 6.34 -6 6 C-5.67 5.67 -5.34 5.34 -5 5 Z " fill="#5E8D51" transform="translate(459,545)"/>
<path d="M0 0 C1.5625 1.8125 1.5625 1.8125 3 4 C2.67 4.99 2.34 5.98 2 7 C1.01 6.67 0.02 6.34 -1 6 C-1.6875 3.9375 -1.6875 3.9375 -2 2 C-1.34 2 -0.68 2 0 2 C0 1.34 0 0.68 0 0 Z " fill="#A3C070" transform="translate(174,494)"/>
<path d="M0 0 C0.99 0.33 1.98 0.66 3 1 C2.34 3.64 1.68 6.28 1 9 C-0.61949011 6.42786866 -1.04408751 5.32330841 -0.625 2.25 C-0.41875 1.5075 -0.2125 0.765 0 0 Z " fill="#6F9F63" transform="translate(508,471)"/>
<path d="M0 0 C0.66 0.66 1.32 1.32 2 2 C1.01 2 0.02 2 -1 2 C-0.67 1.34 -0.34 0.68 0 0 Z M-5 4 C-3.68 4.33 -2.36 4.66 -1 5 C-2.485 6.485 -2.485 6.485 -4 8 C-4.99 7.67 -5.98 7.34 -7 7 C-6.34 6.01 -5.68 5.02 -5 4 Z " fill="#598D49" transform="translate(414,461)"/>
<path d="M0 0 C3.37503669 1.1858237 5.64722731 2.27573689 8 5 C6.35 5 4.7 5 3 5 C3 4.34 3 3.68 3 3 C2.01 3 1.02 3 0 3 C0 2.01 0 1.02 0 0 Z " fill="#A0C261" transform="translate(241,413)"/>
<path d="M0 0 C2 2 2 2 2.1953125 4.1640625 C2.16050781 5.38222656 2.16050781 5.38222656 2.125 6.625 C2.10695313 7.44226563 2.08890625 8.25953125 2.0703125 9.1015625 C2.04710937 9.72804688 2.02390625 10.35453125 2 11 C0.22575769 7.66152773 -0.57998612 4.78012495 -1 1 C-0.67 0.67 -0.34 0.34 0 0 Z " fill="#56884B" transform="translate(514,409)"/>
<path d="M0 0 C0.625 1.8125 0.625 1.8125 1 4 C0.01 5.485 0.01 5.485 -1 7 C-1 6.34 -1 5.68 -1 5 C-1.66 5 -2.32 5 -3 5 C-3.33 3.68 -3.66 2.36 -4 1 C-2.68 0.67 -1.36 0.34 0 0 Z " fill="#8BB45C" transform="translate(478,321)"/>
<path d="M0 0 C2.4375 0.8125 2.4375 0.8125 5 2 C5.33 2.99 5.66 3.98 6 5 C4.35 4.67 2.7 4.34 1 4 C0.67 2.68 0.34 1.36 0 0 Z " fill="#629F3E" transform="translate(463,315)"/>
<path d="M0 0 C5.75 1.625 5.75 1.625 8 5 C5.6875 5.3125 5.6875 5.3125 3 5 C1.1875 2.5 1.1875 2.5 0 0 Z " fill="#629C3A" transform="translate(453,307)"/>
<path d="M0 0 C0.99 0 1.98 0 3 0 C3 0.66 3 1.32 3 2 C2.34 2 1.68 2 1 2 C0.67 3.98 0.34 5.96 0 8 C-0.66 8 -1.32 8 -2 8 C-1.47731534 5.23723823 -0.89130413 2.6739124 0 0 Z " fill="#90B74E" transform="translate(500,280)"/>
<path d="M0 0 C2.31 0.33 4.62 0.66 7 1 C6.01 1.495 6.01 1.495 5 2 C5.33 2.99 5.66 3.98 6 5 C3.5625 4.1875 3.5625 4.1875 1 3 C0.67 2.01 0.34 1.02 0 0 Z " fill="#B0C480" transform="translate(394,183)"/>
<path d="M0 0 C1.8871875 0.0309375 1.8871875 0.0309375 3.8125 0.0625 C3.8125 0.3925 3.8125 0.7225 3.8125 1.0625 C2.1728125 1.495625 2.1728125 1.495625 0.5 1.9375 C-3.22763845 2.88143204 -3.22763845 2.88143204 -6.1875 5.0625 C-6.5175 3.7425 -6.8475 2.4225 -7.1875 1.0625 C-4.43671116 0.14557039 -2.82801087 -0.04636083 0 0 Z " fill="#6A8F61" transform="translate(365.1875,482.9375)"/>
<path d="M0 0 C-0.33 0.99 -0.66 1.98 -1 3 C-5.455 3.495 -5.455 3.495 -10 4 C-9 2 -9 2 -6.125 0.875 C-3 0 -3 0 0 0 Z " fill="#99BB72" transform="translate(395,272)"/>
<path d="M0 0 C1.2380014 3.57644848 0.74926071 6.33694766 0 10 C-2.14915785 6.77626323 -2.38286803 5.73296326 -2 2 C-1.34 1.34 -0.68 0.68 0 0 Z " fill="#98BF59" transform="translate(509,251)"/>
<path d="M0 0 C2.475 0.495 2.475 0.495 5 1 C5.33 2.32 5.66 3.64 6 5 C3.5625 4.1875 3.5625 4.1875 1 3 C0.67 2.01 0.34 1.02 0 0 Z " fill="#91B052" transform="translate(399,185)"/>
<path d="M0 0 C1.80330533 3.60661066 2.46599103 6.08393425 3 10 C2.01 10 1.02 10 0 10 C0 6.7 0 3.4 0 0 Z " fill="#A2BE71" transform="translate(156,168)"/>
<path d="M0 0 C2.76276177 0.52268466 5.3260876 1.10869587 8 2 C8 2.66 8 3.32 8 4 C6.35 4 4.7 4 3 4 C3 3.34 3 2.68 3 2 C2.01 1.67 1.02 1.34 0 1 C0 0.67 0 0.34 0 0 Z " fill="#96BA54" transform="translate(396,82)"/>
<path d="M0 0 C-4.75 4 -4.75 4 -7 4 C-6.6875 2.0625 -6.6875 2.0625 -6 0 C-3 -1 -3 -1 0 0 Z " fill="#5D8D51" transform="translate(452,555)"/>
<path d="M0 0 C1.5 1.3125 1.5 1.3125 3 3 C3 3.99 3 4.98 3 6 C1.68 5.67 0.36 5.34 -1 5 C-0.67 3.35 -0.34 1.7 0 0 Z " fill="#93BC51" transform="translate(226,552)"/>
<path d="M0 0 C0.66 0 1.32 0 2 0 C3.25664978 2.90600261 4 4.79604584 4 8 C3.34 8 2.68 8 2 8 C0.74335022 5.09399739 0 3.20395416 0 0 Z " fill="#96B65B" transform="translate(170,488)"/>
<path d="M0 0 C2.02045442 0.60183749 4.02111039 1.27306096 6 2 C6.33 2.66 6.66 3.32 7 4 C3.25 5.125 3.25 5.125 1 4 C0.375 1.9375 0.375 1.9375 0 0 Z " fill="#A5C26C" transform="translate(212,398)"/>
<path d="M0 0 C1.80330533 3.60661066 2.46599103 6.08393425 3 10 C2.01 9.67 1.02 9.34 0 9 C0 6.03 0 3.06 0 0 Z " fill="#82A778" transform="translate(511,386)"/>
<path d="M0 0 C2.31 0.33 4.62 0.66 7 1 C7.33 2.32 7.66 3.64 8 5 C2.25 3.375 2.25 3.375 0 0 Z " fill="#7BB245" transform="translate(436,295)"/>
<path d="M0 0 C1.65 0 3.3 0 5 0 C5 0.66 5 1.32 5 2 C4.01 2 3.02 2 2 2 C1.67 3.32 1.34 4.64 1 6 C0.67 6 0.34 6 0 6 C0 4.02 0 2.04 0 0 Z " fill="#638C5F" transform="translate(263,278)"/>
<path d="M0 0 C4.875 2.75 4.875 2.75 6 5 C4.68 5.33 3.36 5.66 2 6 C1.34 4.02 0.68 2.04 0 0 Z " fill="#A8C26F" transform="translate(471,123)"/>
</svg>
